<?xml version="1.0" encoding="UTF-8" standalone="no"?>
<!DOCTYPE svg PUBLIC "-//W3C//DTD SVG 1.1//EN" "http://www.w3.org/Graphics/SVG/1.1/DTD/svg11.dtd">
<!-- Created with Vectornator (http://vectornator.io/) -->
<svg height="100%" stroke-miterlimit="10" style="fill-rule:nonzero;clip-rule:evenodd;stroke-linecap:round;stroke-linejoin:round;" version="1.1" viewBox="0 0 297.223 42.3179" width="100%" xml:space="preserve" xmlns="http://www.w3.org/2000/svg" xmlns:vectornator="http://vectornator.io" xmlns:xlink="http://www.w3.org/1999/xlink">
<defs/>
<g id="Layer-1" vectornator:layerName="Layer 1">
<g fill="#ffffff" opacity="1" stroke="none" vectornator:layerName="Text 1">
<path d="M28.6536 14.9426C28.2286 14.4252 27.7066 14.0279 27.0875 13.7507C26.4685 13.4735 25.7524 13.3349 24.9393 13.3349C24.1263 13.3349 23.3732 13.492 22.6803 13.8062C21.9873 14.1203 21.3867 14.5592 20.8786 15.1228C20.3704 15.6864 19.9731 16.3563 19.6867 17.1324C19.4002 17.9085 19.257 18.7493 19.257 19.6548C19.257 20.5787 19.4002 21.4242 19.6867 22.191C19.9731 22.9579 20.3658 23.6232 20.8647 24.1868C21.3636 24.7504 21.9503 25.1893 22.6248 25.5034C23.2993 25.8176 24.0246 25.9746 24.8007 25.9746C25.6877 25.9746 26.4731 25.7898 27.1568 25.4203C27.8406 25.0507 28.4042 24.5333 28.8477 23.868L32.4511 26.5567C31.6195 27.7209 30.5662 28.5802 29.2912 29.1346C28.0161 29.6889 26.7041 29.9661 25.3551 29.9661C23.8214 29.9661 22.4077 29.7259 21.1142 29.2454C19.8206 28.765 18.7026 28.0766 17.7602 27.1804C16.8178 26.2842 16.0832 25.1985 15.5566 23.9235C15.0299 22.6484 14.7666 21.2255 14.7666 19.6548C14.7666 18.0841 15.0299 16.6612 15.5566 15.3861C16.0832 14.1111 16.8178 13.0254 17.7602 12.1292C18.7026 11.233 19.8206 10.5446 21.1142 10.0641C22.4077 9.58369 23.8214 9.34347 25.3551 9.34347C25.9095 9.34347 26.487 9.39428 27.0875 9.49592C27.6881 9.59755 28.2794 9.75924 28.8615 9.98099C29.4436 10.2027 30.0026 10.4984 30.5385 10.868C31.0744 11.2376 31.5549 11.6903 31.9799 12.2262L28.6536 14.9426Z"/>
<path d="M33.7816 22.7316C33.7816 21.6598 33.9756 20.6896 34.3637 19.8211C34.7517 18.9526 35.283 18.2088 35.9575 17.5898C36.632 16.9707 37.4266 16.4949 38.3413 16.1622C39.256 15.8296 40.2308 15.6633 41.2656 15.6633C42.3004 15.6633 43.2752 15.8296 44.1899 16.1622C45.1046 16.4949 45.8992 16.9707 46.5737 17.5898C47.2482 18.2088 47.7795 18.9526 48.1675 19.8211C48.5556 20.6896 48.7496 21.6598 48.7496 22.7316C48.7496 23.8033 48.5556 24.7735 48.1675 25.642C47.7795 26.5105 47.2482 27.2543 46.5737 27.8734C45.8992 28.4924 45.1046 28.9683 44.1899 29.3009C43.2752 29.6335 42.3004 29.7998 41.2656 29.7998C40.2308 29.7998 39.256 29.6335 38.3413 29.3009C37.4266 28.9683 36.632 28.4924 35.9575 27.8734C35.283 27.2543 34.7517 26.5105 34.3637 25.642C33.9756 24.7735 33.7816 23.8033 33.7816 22.7316ZM37.9394 22.7316C37.9394 23.7479 38.2304 24.5702 38.8125 25.1985C39.3946 25.8268 40.2123 26.141 41.2656 26.141C42.3189 26.141 43.1366 25.8268 43.7187 25.1985C44.3008 24.5702 44.5918 23.7479 44.5918 22.7316C44.5918 21.7152 44.3008 20.8929 43.7187 20.2646C43.1366 19.6363 42.3189 19.3222 41.2656 19.3222C40.2123 19.3222 39.3946 19.6363 38.8125 20.2646C38.2304 20.8929 37.9394 21.7152 37.9394 22.7316Z"/>
<path d="M64.1612 29.4672L60.1697 29.4672L60.1697 27.6378L60.1143 27.6378C59.9664 27.8965 59.777 28.1552 59.546 28.4139C59.3151 28.6726 59.0332 28.9036 58.7006 29.1068C58.368 29.3101 57.9892 29.4764 57.5642 29.6058C57.1391 29.7351 56.6772 29.7998 56.1782 29.7998C55.1249 29.7998 54.2703 29.6381 53.6143 29.3147C52.9582 28.9914 52.4501 28.5432 52.0897 27.9704C51.7294 27.3975 51.4892 26.723 51.369 25.9469C51.2489 25.1708 51.1889 24.33 51.1889 23.4245L51.1889 15.9959L55.3467 15.9959L55.3467 22.593C55.3467 22.981 55.3605 23.3829 55.3882 23.7987C55.416 24.2145 55.4991 24.5979 55.6377 24.9491C55.7763 25.3002 55.9888 25.5866 56.2752 25.8083C56.5617 26.0301 56.9728 26.141 57.5087 26.141C58.0446 26.141 58.4789 26.0439 58.8115 25.8499C59.1441 25.6559 59.3982 25.3972 59.5738 25.0738C59.7493 24.7504 59.8648 24.3854 59.9202 23.9789C59.9757 23.5724 60.0034 23.1473 60.0034 22.7038L60.0034 15.9959L64.1612 15.9959L64.1612 29.4672Z"/>
<path d="M81.2359 28.3307C81.2359 30.8808 80.5937 32.8165 79.3094 34.1378C78.0251 35.459 76.071 36.1197 73.4469 36.1197C72.2458 36.1197 71.0631 35.9857 69.8989 35.7177C68.7348 35.4498 67.663 34.9278 66.6836 34.1516L68.9842 30.7145C69.631 31.2504 70.3101 31.6754 71.0216 31.9896C71.733 32.3037 72.5137 32.4608 73.3638 32.4608C74.6388 32.4608 75.5766 32.1513 76.1772 31.5322C76.7778 30.9132 77.0781 30.1232 77.0781 29.1623L77.0781 27.8595L77.0226 27.8595C76.5422 28.5063 75.9462 28.9636 75.2348 29.2316C74.5233 29.4995 73.8535 29.6335 73.2252 29.6335C72.2273 29.6335 71.3218 29.4626 70.5088 29.1207C69.6957 28.7788 68.9981 28.2984 68.416 27.6793C67.8339 27.0603 67.3858 26.3257 67.0716 25.4757C66.7575 24.6257 66.6004 23.6925 66.6004 22.6761C66.6004 21.7891 66.7436 20.9206 67.0301 20.0706C67.3165 19.2205 67.723 18.4721 68.2497 17.8254C68.7763 17.1786 69.4185 16.6566 70.1761 16.2593C70.9338 15.862 71.7931 15.6633 72.754 15.6633C73.3453 15.6633 73.8858 15.728 74.3755 15.8573C74.8652 15.9867 75.3041 16.153 75.6921 16.3563C76.0802 16.5595 76.4128 16.7859 76.69 17.0354C76.9672 17.2849 77.1889 17.5297 77.3553 17.7699L77.4107 17.7699L77.4107 15.9959L81.2359 15.9959L81.2359 28.3307ZM70.7582 22.6484C70.7582 23.0919 70.8414 23.5123 71.0077 23.9096C71.174 24.3069 71.4096 24.658 71.7145 24.9629C72.0194 25.2678 72.3705 25.5127 72.7678 25.6975C73.1651 25.8822 73.604 25.9746 74.0845 25.9746C74.5464 25.9746 74.9807 25.8822 75.3872 25.6975C75.7938 25.5127 76.1495 25.2678 76.4544 24.9629C76.7593 24.658 76.9949 24.3069 77.1612 23.9096C77.3275 23.5123 77.4107 23.0919 77.4107 22.6484C77.4107 22.2049 77.3275 21.7845 77.1612 21.3872C76.9949 20.9899 76.7593 20.6388 76.4544 20.3339C76.1495 20.029 75.7938 19.7841 75.3872 19.5994C74.9807 19.4146 74.5464 19.3222 74.0845 19.3222C73.604 19.3222 73.1651 19.4146 72.7678 19.5994C72.3705 19.7841 72.0194 20.029 71.7145 20.3339C71.4096 20.6388 71.174 20.9899 71.0077 21.3872C70.8414 21.7845 70.7582 22.2049 70.7582 22.6484Z"/>
<path d="M93.0163 27.7764L92.9608 27.7764C92.4989 28.497 91.8844 29.0144 91.1176 29.3286C90.3507 29.6427 89.5422 29.7998 88.6922 29.7998C88.0639 29.7998 87.4587 29.712 86.8766 29.5365C86.2945 29.3609 85.7817 29.0976 85.3382 28.7465C84.8947 28.3954 84.5436 27.9611 84.2849 27.4437C84.0262 26.9263 83.8969 26.3257 83.8969 25.642C83.8969 24.8659 84.0401 24.2099 84.3265 23.674C84.6129 23.1381 85.001 22.6946 85.4907 22.3435C85.9804 21.9924 86.5394 21.7198 87.1677 21.5258C87.7959 21.3318 88.4473 21.1886 89.1218 21.0962C89.7963 21.0038 90.4708 20.9483 91.1453 20.9299C91.8198 20.9114 92.4434 20.9021 93.0163 20.9021C93.0163 20.163 92.753 19.5763 92.2263 19.142C91.6996 18.7077 91.076 18.4906 90.3553 18.4906C89.6716 18.4906 89.0479 18.6338 88.4843 18.9203C87.9207 19.2067 87.4171 19.5994 86.9736 20.0983L84.7561 17.8254C85.5323 17.1047 86.4377 16.5642 87.4726 16.2038C88.5074 15.8435 89.5792 15.6633 90.6879 15.6633C91.9075 15.6633 92.91 15.8158 93.6954 16.1207C94.4807 16.4256 95.109 16.8737 95.5803 17.465C96.0515 18.0564 96.3795 18.7817 96.5643 19.6409C96.7491 20.5002 96.8415 21.4935 96.8415 22.6207L96.8415 29.4672L93.0163 29.4672L93.0163 27.7764ZM91.9907 23.5631C91.6765 23.5631 91.2839 23.577 90.8127 23.6047C90.3414 23.6324 89.8887 23.711 89.4544 23.8403C89.0202 23.9697 88.6506 24.1637 88.3457 24.4224C88.0408 24.6811 87.8883 25.0414 87.8883 25.5034C87.8883 26.0024 88.1008 26.3719 88.5259 26.6122C88.9509 26.8524 89.3944 26.9725 89.8564 26.9725C90.2629 26.9725 90.6556 26.9171 91.0344 26.8062C91.4132 26.6953 91.7505 26.5383 92.0461 26.335C92.3418 26.1317 92.5774 25.873 92.753 25.5589C92.9285 25.2447 93.0163 24.8751 93.0163 24.4501L93.0163 23.5631L91.9907 23.5631Z"/>
<path d="M99.447 15.9959L103.605 15.9959L103.605 18.158L103.66 18.158C104.104 17.3264 104.63 16.7028 105.24 16.287C105.85 15.8712 106.617 15.6633 107.541 15.6633C107.781 15.6633 108.021 15.6726 108.262 15.691C108.502 15.7095 108.724 15.7465 108.927 15.8019L108.927 19.5994C108.631 19.507 108.34 19.4377 108.054 19.3915C107.767 19.3453 107.467 19.3222 107.153 19.3222C106.358 19.3222 105.73 19.433 105.268 19.6548C104.806 19.8765 104.45 20.1861 104.201 20.5834C103.951 20.9807 103.79 21.4565 103.716 22.0109C103.642 22.5652 103.605 23.1751 103.605 23.8403L103.605 29.4672L99.447 29.4672L99.447 15.9959Z"/>
<path d="M119.46 9.8424L123.784 9.8424L123.784 17.1601L132.183 17.1601L132.183 9.8424L136.507 9.8424L136.507 29.4672L132.183 29.4672L132.183 20.9853L123.784 20.9853L123.784 29.4672L119.46 29.4672L119.46 9.8424Z"/>
<path d="M139.473 22.7316C139.473 21.6598 139.667 20.6896 140.055 19.8211C140.443 18.9526 140.974 18.2088 141.649 17.5898C142.323 16.9707 143.118 16.4949 144.032 16.1622C144.947 15.8296 145.922 15.6633 146.957 15.6633C147.992 15.6633 148.966 15.8296 149.881 16.1622C150.796 16.4949 151.59 16.9707 152.265 17.5898C152.939 18.2088 153.471 18.9526 153.859 19.8211C154.247 20.6896 154.441 21.6598 154.441 22.7316C154.441 23.8033 154.247 24.7735 153.859 25.642C153.471 26.5105 152.939 27.2543 152.265 27.8734C151.59 28.4924 150.796 28.9683 149.881 29.3009C148.966 29.6335 147.992 29.7998 146.957 29.7998C145.922 29.7998 144.947 29.6335 144.032 29.3009C143.118 28.9683 142.323 28.4924 141.649 27.8734C140.974 27.2543 140.443 26.5105 140.055 25.642C139.667 24.7735 139.473 23.8033 139.473 22.7316ZM143.63 22.7316C143.63 23.7479 143.922 24.5702 144.504 25.1985C145.086 25.8268 145.903 26.141 146.957 26.141C148.01 26.141 148.828 25.8268 149.41 25.1985C149.992 24.5702 150.283 23.7479 150.283 22.7316C150.283 21.7152 149.992 20.8929 149.41 20.2646C148.828 19.6363 148.01 19.3222 146.957 19.3222C145.903 19.3222 145.086 19.6363 144.504 20.2646C143.922 20.8929 143.63 21.7152 143.63 22.7316Z"/>
<path d="M169.852 29.4672L165.861 29.4672L165.861 27.6378L165.805 27.6378C165.658 27.8965 165.468 28.1552 165.237 28.4139C165.006 28.6726 164.724 28.9036 164.392 29.1068C164.059 29.3101 163.68 29.4764 163.255 29.6058C162.83 29.7351 162.368 29.7998 161.869 29.7998C160.816 29.7998 159.961 29.6381 159.305 29.3147C158.649 28.9914 158.141 28.5432 157.781 27.9704C157.421 27.3975 157.18 26.723 157.06 25.9469C156.94 25.1708 156.88 24.33 156.88 23.4245L156.88 15.9959L161.038 15.9959L161.038 22.593C161.038 22.981 161.052 23.3829 161.079 23.7987C161.107 24.2145 161.19 24.5979 161.329 24.9491C161.467 25.3002 161.68 25.5866 161.966 25.8083C162.253 26.0301 162.664 26.141 163.2 26.141C163.736 26.141 164.17 26.0439 164.503 25.8499C164.835 25.6559 165.089 25.3972 165.265 25.0738C165.44 24.7504 165.556 24.3854 165.611 23.9789C165.667 23.5724 165.695 23.1473 165.695 22.7038L165.695 15.9959L169.852 15.9959L169.852 29.4672Z"/>
<path d="M172.79 15.9959L176.948 15.9959L176.948 18.158L177.004 18.158C177.447 17.3264 177.974 16.7028 178.584 16.287C179.193 15.8712 179.96 15.6633 180.884 15.6633C181.125 15.6633 181.365 15.6726 181.605 15.691C181.845 15.7095 182.067 15.7465 182.27 15.8019L182.27 19.5994C181.975 19.507 181.684 19.4377 181.397 19.3915C181.111 19.3453 180.81 19.3222 180.496 19.3222C179.702 19.3222 179.073 19.433 178.611 19.6548C178.149 19.8765 177.794 20.1861 177.544 20.5834C177.295 20.9807 177.133 21.4565 177.059 22.0109C176.985 22.5652 176.948 23.1751 176.948 23.8403L176.948 29.4672L172.79 29.4672L172.79 15.9959Z"/>
<path d="M202.505 14.6377C202.154 14.1942 201.678 13.8662 201.077 13.6537C200.477 13.4412 199.909 13.3349 199.373 13.3349C199.059 13.3349 198.735 13.3719 198.402 13.4458C198.07 13.5197 197.756 13.6352 197.46 13.7923C197.164 13.9494 196.924 14.1573 196.739 14.416C196.555 14.6747 196.462 14.9888 196.462 15.3584C196.462 15.9497 196.684 16.4025 197.127 16.7166C197.571 17.0308 198.13 17.2987 198.804 17.5205C199.479 17.7422 200.204 17.964 200.98 18.1857C201.756 18.4075 202.482 18.7216 203.156 19.1281C203.831 19.5347 204.39 20.0798 204.833 20.7635C205.277 21.4473 205.498 22.362 205.498 23.5077C205.498 24.5979 205.295 25.5496 204.889 26.3627C204.482 27.1758 203.932 27.8503 203.239 28.3862C202.546 28.9221 201.743 29.3194 200.828 29.5781C199.913 29.8368 198.948 29.9661 197.931 29.9661C196.656 29.9661 195.474 29.7721 194.383 29.384C193.293 28.996 192.277 28.3677 191.334 27.4992L194.411 24.1175C194.855 24.7088 195.414 25.1662 196.088 25.4896C196.762 25.8129 197.46 25.9746 198.181 25.9746C198.532 25.9746 198.888 25.9331 199.248 25.8499C199.608 25.7668 199.932 25.642 200.218 25.4757C200.504 25.3094 200.735 25.0969 200.911 24.8382C201.087 24.5795 201.174 24.2746 201.174 23.9235C201.174 23.3321 200.948 22.8655 200.495 22.5237C200.043 22.1818 199.474 21.8908 198.791 21.6505C198.107 21.4103 197.368 21.1701 196.573 20.9299C195.778 20.6896 195.039 20.3662 194.356 19.9597C193.672 19.5532 193.104 19.0173 192.651 18.352C192.198 17.6868 191.972 16.809 191.972 15.7187C191.972 14.6654 192.18 13.7415 192.595 12.9469C193.011 12.1523 193.566 11.487 194.259 10.9511C194.952 10.4153 195.751 10.0133 196.656 9.74539C197.562 9.47744 198.495 9.34347 199.456 9.34347C200.565 9.34347 201.636 9.50054 202.671 9.81468C203.706 10.1288 204.639 10.6555 205.471 11.3946L202.505 14.6377Z"/>
<path d="M217.362 19.3222L213.703 19.3222L213.703 23.8126C213.703 24.1822 213.722 24.5194 213.759 24.8243C213.796 25.1292 213.879 25.3925 214.008 25.6143C214.137 25.836 214.336 26.007 214.604 26.1271C214.872 26.2472 215.228 26.3073 215.671 26.3073C215.893 26.3073 216.184 26.2842 216.544 26.238C216.905 26.1918 217.177 26.0855 217.362 25.9192L217.362 29.384C216.9 29.5503 216.42 29.6612 215.921 29.7167C215.422 29.7721 214.932 29.7998 214.452 29.7998C213.749 29.7998 213.103 29.7259 212.511 29.5781C211.92 29.4302 211.403 29.1946 210.959 28.8712C210.516 28.5479 210.169 28.1275 209.92 27.61C209.67 27.0926 209.545 26.4643 209.545 25.7252L209.545 19.3222L206.884 19.3222L206.884 15.9959L209.545 15.9959L209.545 12.0045L213.703 12.0045L213.703 15.9959L217.362 15.9959L217.362 19.3222Z"/>
<path d="M227.923 27.7764L227.867 27.7764C227.405 28.497 226.791 29.0144 226.024 29.3286C225.257 29.6427 224.449 29.7998 223.599 29.7998C222.97 29.7998 222.365 29.712 221.783 29.5365C221.201 29.3609 220.688 29.0976 220.245 28.7465C219.801 28.3954 219.45 27.9611 219.191 27.4437C218.933 26.9263 218.803 26.3257 218.803 25.642C218.803 24.8659 218.947 24.2099 219.233 23.674C219.519 23.1381 219.908 22.6946 220.397 22.3435C220.887 21.9924 221.446 21.7198 222.074 21.5258C222.702 21.3318 223.354 21.1886 224.028 21.0962C224.703 21.0038 225.377 20.9483 226.052 20.9299C226.726 20.9114 227.35 20.9021 227.923 20.9021C227.923 20.163 227.66 19.5763 227.133 19.142C226.606 18.7077 225.983 18.4906 225.262 18.4906C224.578 18.4906 223.954 18.6338 223.391 18.9203C222.827 19.2067 222.324 19.5994 221.88 20.0983L219.663 17.8254C220.439 17.1047 221.344 16.5642 222.379 16.2038C223.414 15.8435 224.486 15.6633 225.594 15.6633C226.814 15.6633 227.817 15.8158 228.602 16.1207C229.387 16.4256 230.016 16.8737 230.487 17.465C230.958 18.0564 231.286 18.7817 231.471 19.6409C231.656 20.5002 231.748 21.4935 231.748 22.6207L231.748 29.4672L227.923 29.4672L227.923 27.7764ZM226.897 23.5631C226.583 23.5631 226.19 23.577 225.719 23.6047C225.248 23.6324 224.795 23.711 224.361 23.8403C223.927 23.9697 223.557 24.1637 223.252 24.4224C222.947 24.6811 222.795 25.0414 222.795 25.5034C222.795 26.0024 223.007 26.3719 223.432 26.6122C223.857 26.8524 224.301 26.9725 224.763 26.9725C225.169 26.9725 225.562 26.9171 225.941 26.8062C226.32 26.6953 226.657 26.5383 226.953 26.335C227.248 26.1317 227.484 25.873 227.66 25.5589C227.835 25.2447 227.923 24.8751 227.923 24.4501L227.923 23.5631L226.897 23.5631Z"/>
<path d="M243.528 19.3222L239.87 19.3222L239.87 23.8126C239.87 24.1822 239.888 24.5194 239.925 24.8243C239.962 25.1292 240.045 25.3925 240.174 25.6143C240.304 25.836 240.502 26.007 240.77 26.1271C241.038 26.2472 241.394 26.3073 241.838 26.3073C242.059 26.3073 242.35 26.2842 242.711 26.238C243.071 26.1918 243.344 26.0855 243.528 25.9192L243.528 29.384C243.066 29.5503 242.586 29.6612 242.087 29.7167C241.588 29.7721 241.098 29.7998 240.618 29.7998C239.916 29.7998 239.269 29.7259 238.678 29.5781C238.086 29.4302 237.569 29.1946 237.125 28.8712C236.682 28.5479 236.335 28.1275 236.086 27.61C235.836 27.0926 235.712 26.4643 235.712 25.7252L235.712 19.3222L233.051 19.3222L233.051 15.9959L235.712 15.9959L235.712 12.0045L239.87 12.0045L239.87 15.9959L243.528 15.9959L243.528 19.3222Z"/>
<path d="M258.607 29.4672L254.616 29.4672L254.616 27.6378L254.56 27.6378C254.413 27.8965 254.223 28.1552 253.992 28.4139C253.761 28.6726 253.479 28.9036 253.147 29.1068C252.814 29.3101 252.435 29.4764 252.01 29.6058C251.585 29.7351 251.123 29.7998 250.624 29.7998C249.571 29.7998 248.716 29.6381 248.06 29.3147C247.404 28.9914 246.896 28.5432 246.536 27.9704C246.176 27.3975 245.935 26.723 245.815 25.9469C245.695 25.1708 245.635 24.33 245.635 23.4245L245.635 15.9959L249.793 15.9959L249.793 22.593C249.793 22.981 249.807 23.3829 249.834 23.7987C249.862 24.2145 249.945 24.5979 250.084 24.9491C250.222 25.3002 250.435 25.5866 250.721 25.8083C251.008 26.0301 251.419 26.141 251.955 26.141C252.491 26.141 252.925 26.0439 253.258 25.8499C253.59 25.6559 253.844 25.3972 254.02 25.0738C254.195 24.7504 254.311 24.3854 254.366 23.9789C254.422 23.5724 254.45 23.1473 254.45 22.7038L254.45 15.9959L258.607 15.9959L258.607 29.4672Z"/>
<path d="M269.168 19.9597C268.558 19.2021 267.754 18.8232 266.757 18.8232C266.406 18.8232 266.064 18.9064 265.731 19.0727C265.398 19.239 265.232 19.5254 265.232 19.932C265.232 20.2646 265.403 20.5095 265.745 20.6665C266.087 20.8236 266.521 20.9622 267.048 21.0823C267.574 21.2024 268.138 21.3318 268.739 21.4704C269.339 21.609 269.903 21.8261 270.429 22.1218C270.956 22.4174 271.39 22.8193 271.732 23.3275C272.074 23.8357 272.245 24.5148 272.245 25.3648C272.245 26.2333 272.056 26.9494 271.677 27.513C271.298 28.0766 270.813 28.5294 270.221 28.8712C269.63 29.2131 268.965 29.4533 268.226 29.5919C267.487 29.7305 266.757 29.7998 266.036 29.7998C265.094 29.7998 264.142 29.6658 263.181 29.3979C262.22 29.1299 261.407 28.6541 260.742 27.9704L263.264 25.1708C263.652 25.6513 264.082 26.0162 264.553 26.2657C265.024 26.5152 265.574 26.6399 266.202 26.6399C266.683 26.6399 267.117 26.5706 267.505 26.432C267.893 26.2934 268.087 26.0393 268.087 25.6697C268.087 25.3186 267.916 25.0553 267.574 24.8798C267.232 24.7042 266.798 24.5564 266.272 24.4363C265.745 24.3161 265.181 24.1868 264.581 24.0482C263.98 23.9096 263.417 23.7017 262.89 23.4245C262.363 23.1473 261.929 22.7547 261.587 22.2465C261.245 21.7383 261.074 21.0592 261.074 20.2092C261.074 19.4146 261.236 18.7308 261.559 18.158C261.883 17.5851 262.308 17.1139 262.834 16.7443C263.361 16.3748 263.966 16.1022 264.65 15.9266C265.334 15.7511 266.027 15.6633 266.729 15.6633C267.616 15.6633 268.512 15.7927 269.418 16.0514C270.323 16.3101 271.09 16.7721 271.718 17.4373L269.168 19.9597Z"/>
<path d="M274.462 27.0834C274.462 26.7323 274.527 26.3997 274.656 26.0855C274.786 25.7714 274.966 25.4988 275.197 25.2678C275.428 25.0368 275.701 24.8567 276.015 24.7273C276.329 24.5979 276.661 24.5333 277.013 24.5333C277.364 24.5333 277.696 24.5979 278.01 24.7273C278.325 24.8567 278.597 25.0368 278.828 25.2678C279.059 25.4988 279.239 25.7714 279.369 26.0855C279.498 26.3997 279.563 26.7323 279.563 27.0834C279.563 27.4345 279.498 27.7671 279.369 28.0813C279.239 28.3954 279.059 28.668 278.828 28.899C278.597 29.1299 278.325 29.3101 278.01 29.4395C277.696 29.5688 277.364 29.6335 277.013 29.6335C276.661 29.6335 276.329 29.5688 276.015 29.4395C275.701 29.3101 275.428 29.1299 275.197 28.899C274.966 28.668 274.786 28.3954 274.656 28.0813C274.527 27.7671 274.462 27.4345 274.462 27.0834ZM274.462 18.2134C274.462 17.8623 274.527 17.5297 274.656 17.2156C274.786 16.9014 274.966 16.6288 275.197 16.3979C275.428 16.1669 275.701 15.9867 276.015 15.8573C276.329 15.728 276.661 15.6633 277.013 15.6633C277.364 15.6633 277.696 15.728 278.01 15.8573C278.325 15.9867 278.597 16.1669 278.828 16.3979C279.059 16.6288 279.239 16.9014 279.369 17.2156C279.498 17.5297 279.563 17.8623 279.563 18.2134C279.563 18.5645 279.498 18.8972 279.369 19.2113C279.239 19.5254 279.059 19.798 278.828 20.029C278.597 20.26 278.325 20.4402 278.01 20.5695C277.696 20.6989 277.364 20.7635 277.013 20.7635C276.661 20.7635 276.329 20.6989 276.015 20.5695C275.701 20.4402 275.428 20.26 275.197 20.029C274.966 19.798 274.786 19.5254 274.656 19.2113C274.527 18.8972 274.462 18.5645 274.462 18.2134Z"/>
</g>
</g>
</svg>
