<?xml version="1.0" encoding="UTF-8" standalone="no"?>
<!DOCTYPE svg PUBLIC "-//W3C//DTD SVG 1.1//EN" "http://www.w3.org/Graphics/SVG/1.1/DTD/svg11.dtd">
<!-- Created with Vectornator (http://vectornator.io/) -->
<svg height="100%" stroke-miterlimit="10" style="fill-rule:nonzero;clip-rule:evenodd;stroke-linecap:round;stroke-linejoin:round;" version="1.1" viewBox="0 0 170.008 64.9344" width="100%" xml:space="preserve" xmlns="http://www.w3.org/2000/svg" xmlns:vectornator="http://vectornator.io" xmlns:xlink="http://www.w3.org/1999/xlink">
<defs/>
<g id="Layer-1" vectornator:layerName="Layer 1">
<g fill="#ffffff" opacity="1" stroke="none" vectornator:layerName="Text 1">
<path d="M35.145 22.7655L39.0988 22.7655C38.8768 21.1839 38.4051 19.7897 37.6837 18.5828C36.9623 17.3759 36.0606 16.3701 34.9785 15.5654C33.8964 14.7608 32.6618 14.1504 31.2745 13.7342C29.8872 13.318 28.4167 13.11 26.8629 13.11C24.5878 13.11 22.5693 13.5192 20.8074 14.3377C19.0456 15.1562 17.575 16.273 16.3958 17.688C15.2167 19.103 14.3219 20.7608 13.7115 22.6614C13.101 24.562 12.7958 26.5944 12.7958 28.7585C12.7958 30.9227 13.0802 32.9481 13.649 34.8348C14.2178 36.7215 15.071 38.3585 16.2086 39.7458C17.3461 41.1331 18.775 42.2221 20.4953 43.0129C22.2155 43.8036 24.2271 44.199 26.53 44.199C30.3311 44.199 33.3277 43.1585 35.5196 41.0776C37.7115 38.9967 39.0016 36.0834 39.3901 32.3377L35.4363 32.3377C35.3531 33.5585 35.1034 34.6961 34.6872 35.7504C34.271 36.8048 33.6953 37.7134 32.96 38.4764C32.2248 39.2395 31.3508 39.836 30.3381 40.266C29.3253 40.6961 28.167 40.9111 26.8629 40.9111C25.0872 40.9111 23.5612 40.5782 22.2849 39.9123C21.0086 39.2464 19.9612 38.3516 19.1427 37.2279C18.3242 36.1042 17.7207 34.7863 17.3323 33.2741C16.9438 31.762 16.7496 30.1597 16.7496 28.4672C16.7496 26.9134 16.9438 25.4152 17.3323 23.9724C17.7207 22.5296 18.3242 21.2464 19.1427 20.1227C19.9612 18.999 21.0016 18.1042 22.2641 17.4383C23.5265 16.7724 25.0456 16.4394 26.8213 16.4394C28.9022 16.4394 30.6987 16.9666 32.2109 18.0209C33.723 19.0753 34.7011 20.6568 35.145 22.7655Z"/>
<path d="M46.2988 32.7955C46.2988 31.4915 46.4722 30.3331 46.819 29.3204C47.1658 28.3077 47.6444 27.4545 48.2548 26.7608C48.8652 26.0672 49.5797 25.54 50.3982 25.1793C51.2167 24.8186 52.0837 24.6383 52.9993 24.6383C53.915 24.6383 54.782 24.8186 55.6005 25.1793C56.419 25.54 57.1335 26.0672 57.7439 26.7608C58.3543 27.4545 58.8329 28.3077 59.1797 29.3204C59.5265 30.3331 59.6999 31.4915 59.6999 32.7955C59.6999 34.0996 59.5265 35.2579 59.1797 36.2707C58.8329 37.2834 58.3543 38.1296 57.7439 38.8094C57.1335 39.4892 56.419 40.0094 55.6005 40.3701C54.782 40.7308 53.915 40.9111 52.9993 40.9111C52.0837 40.9111 51.2167 40.7308 50.3982 40.3701C49.5797 40.0094 48.8652 39.4892 48.2548 38.8094C47.6444 38.1296 47.1658 37.2834 46.819 36.2707C46.4722 35.2579 46.2988 34.0996 46.2988 32.7955ZM42.5531 32.7955C42.5531 34.377 42.7751 35.8475 43.219 37.2071C43.6629 38.5666 44.3288 39.7527 45.2167 40.7655C46.1045 41.7782 47.2005 42.5689 48.5045 43.1377C49.8086 43.7065 51.3069 43.9909 52.9993 43.9909C54.7196 43.9909 56.2248 43.7065 57.515 43.1377C58.8051 42.5689 59.8942 41.7782 60.782 40.7655C61.6699 39.7527 62.3358 38.5666 62.7797 37.2071C63.2236 35.8475 63.4456 34.377 63.4456 32.7955C63.4456 31.214 63.2236 29.7366 62.7797 28.3631C62.3358 26.9897 61.6699 25.7967 60.782 24.7839C59.8942 23.7712 58.8051 22.9735 57.515 22.3909C56.2248 21.8082 54.7196 21.5169 52.9993 21.5169C51.3069 21.5169 49.8086 21.8082 48.5045 22.3909C47.2005 22.9735 46.1045 23.7712 45.2167 24.7839C44.3288 25.7967 43.6629 26.9897 43.219 28.3631C42.7751 29.7366 42.5531 31.214 42.5531 32.7955Z"/>
<path d="M67.6075 22.0163L67.6075 43.5331L71.145 43.5331L71.145 31.3805C71.145 30.4094 71.2768 29.5146 71.5404 28.6961C71.804 27.8776 72.1994 27.1631 72.7265 26.5527C73.2537 25.9423 73.9127 25.4707 74.7034 25.1377C75.4942 24.8048 76.4306 24.6383 77.5127 24.6383C78.8722 24.6383 79.9404 25.0267 80.7173 25.8036C81.4942 26.5805 81.8826 27.6348 81.8826 28.9666L81.8826 43.5331L85.4202 43.5331L85.4202 29.3828C85.4202 28.2175 85.3023 27.1562 85.0664 26.199C84.8306 25.2418 84.4213 24.4163 83.8387 23.7227C83.256 23.029 82.493 22.488 81.5497 22.0996C80.6063 21.7111 79.4271 21.5169 78.0121 21.5169C74.8213 21.5169 72.4907 22.8209 71.0202 25.429L70.9369 25.429L70.9369 22.0163L67.6075 22.0163Z"/>
<path d="M95.6583 22.0163L95.6583 15.5654L92.1208 15.5654L92.1208 22.0163L88.4583 22.0163L88.4583 25.1377L92.1208 25.1377L92.1208 38.8302C92.1208 39.829 92.2179 40.6337 92.4121 41.2441C92.6063 41.8545 92.9046 42.3262 93.3069 42.6591C93.7092 42.9921 94.2364 43.221 94.8884 43.3458C95.5404 43.4707 96.3242 43.5331 97.2398 43.5331L99.9451 43.5331L99.9451 40.4117L98.3219 40.4117C97.767 40.4117 97.3161 40.3909 96.9693 40.3493C96.6225 40.3077 96.352 40.2175 96.1578 40.0788C95.9635 39.94 95.8318 39.7458 95.7624 39.4961C95.693 39.2464 95.6583 38.9134 95.6583 38.4973L95.6583 25.1377L99.9451 25.1377L99.9451 22.0163L95.6583 22.0163Z"/>
<path d="M122.918 43.4499C122.308 43.8106 121.462 43.9909 120.38 43.9909C119.464 43.9909 118.736 43.7343 118.195 43.221C117.654 42.7077 117.383 41.8684 117.383 40.703C116.412 41.8684 115.281 42.7077 113.991 43.221C112.701 43.7343 111.307 43.9909 109.809 43.9909C108.838 43.9909 107.915 43.8799 107.041 43.658C106.167 43.436 105.411 43.0892 104.773 42.6175C104.135 42.1458 103.628 41.5285 103.254 40.7655C102.879 40.0025 102.692 39.0799 102.692 37.9978C102.692 36.777 102.9 35.7782 103.316 35.0013C103.732 34.2244 104.28 33.5932 104.96 33.1077C105.64 32.6221 106.417 32.2545 107.291 32.0048C108.165 31.7551 109.06 31.547 109.975 31.3805C110.946 31.1863 111.869 31.0406 112.743 30.9435C113.617 30.8464 114.387 30.7077 115.053 30.5273C115.718 30.347 116.246 30.0834 116.634 29.7366C117.023 29.3897 117.217 28.8834 117.217 28.2175C117.217 27.4406 117.071 26.8163 116.78 26.3446C116.488 25.873 116.114 25.5123 115.656 25.2626C115.198 25.0129 114.685 24.8464 114.116 24.7631C113.547 24.6799 112.986 24.6383 112.431 24.6383C110.932 24.6383 109.684 24.9227 108.685 25.4915C107.686 26.0603 107.145 27.1354 107.062 28.7169L103.524 28.7169C103.58 27.3851 103.857 26.2614 104.357 25.3458C104.856 24.4302 105.522 23.688 106.354 23.1192C107.187 22.5504 108.137 22.1412 109.205 21.8915C110.273 21.6418 111.418 21.5169 112.639 21.5169C113.61 21.5169 114.574 21.5863 115.531 21.725C116.488 21.8637 117.355 22.1481 118.132 22.5782C118.909 23.0082 119.534 23.6117 120.005 24.3886C120.477 25.1655 120.713 26.1782 120.713 27.4267L120.713 38.4973C120.713 39.3296 120.761 39.94 120.858 40.3285C120.955 40.7169 121.281 40.9111 121.836 40.9111C122.142 40.9111 122.502 40.8418 122.918 40.703L122.918 43.4499ZM117.175 32.421C116.731 32.7539 116.149 32.9967 115.427 33.1493C114.706 33.3019 113.95 33.4267 113.159 33.5238C112.368 33.621 111.57 33.7319 110.766 33.8568C109.961 33.9816 109.24 34.1828 108.602 34.4603C107.964 34.7377 107.443 35.1331 107.041 35.6464C106.639 36.1597 106.438 36.8603 106.438 37.7481C106.438 38.3308 106.555 38.8233 106.791 39.2256C107.027 39.6279 107.332 39.9539 107.707 40.2036C108.081 40.4533 108.518 40.6337 109.018 40.7447C109.517 40.8556 110.044 40.9111 110.599 40.9111C111.765 40.9111 112.764 40.7516 113.596 40.4325C114.428 40.1134 115.108 39.7111 115.635 39.2256C116.162 38.74 116.551 38.2129 116.801 37.6441C117.05 37.0753 117.175 36.5412 117.175 36.0418L117.175 32.421Z"/>
<path d="M140.814 28.925L144.477 28.925C144.338 27.6487 144.005 26.5458 143.478 25.6163C142.951 24.6868 142.278 23.9169 141.46 23.3065C140.641 22.6961 139.698 22.2452 138.629 21.9539C137.561 21.6626 136.417 21.5169 135.196 21.5169C133.503 21.5169 132.019 21.8152 130.743 22.4117C129.466 23.0082 128.405 23.8267 127.559 24.8672C126.713 25.9077 126.081 27.1285 125.665 28.5296C125.249 29.9308 125.041 31.436 125.041 33.0452C125.041 34.6545 125.256 36.1319 125.686 37.4776C126.116 38.8233 126.754 39.9817 127.601 40.9528C128.447 41.9238 129.501 42.673 130.764 43.2002C132.026 43.7273 133.476 43.9909 135.113 43.9909C137.86 43.9909 140.031 43.2695 141.626 41.8267C143.221 40.384 144.213 38.3308 144.602 35.6672L140.981 35.6672C140.759 37.3319 140.155 38.6221 139.171 39.5377C138.186 40.4533 136.819 40.9111 135.071 40.9111C133.961 40.9111 133.004 40.6892 132.199 40.2452C131.395 39.8013 130.743 39.2117 130.243 38.4764C129.744 37.7412 129.376 36.9019 129.14 35.9585C128.905 35.0152 128.787 34.0441 128.787 33.0452C128.787 31.9631 128.898 30.9157 129.12 29.903C129.342 28.8903 129.709 27.9955 130.223 27.2186C130.736 26.4418 131.423 25.8175 132.283 25.3458C133.143 24.8741 134.211 24.6383 135.487 24.6383C136.986 24.6383 138.179 25.0129 139.066 25.762C139.954 26.5111 140.537 27.5655 140.814 28.925Z"/>
<path d="M153.466 22.0163L153.466 15.5654L149.929 15.5654L149.929 22.0163L146.266 22.0163L146.266 25.1377L149.929 25.1377L149.929 38.8302C149.929 39.829 150.026 40.6337 150.22 41.2441C150.414 41.8545 150.713 42.3262 151.115 42.6591C151.517 42.9921 152.045 43.221 152.697 43.3458C153.349 43.4707 154.132 43.5331 155.048 43.5331L157.753 43.5331L157.753 40.4117L156.13 40.4117C155.575 40.4117 155.124 40.3909 154.777 40.3493C154.431 40.3077 154.16 40.2175 153.966 40.0788C153.772 39.94 153.64 39.7458 153.571 39.4961C153.501 39.2464 153.466 38.9134 153.466 38.4973L153.466 25.1377L157.753 25.1377L157.753 22.0163L153.466 22.0163Z"/>
</g>
</g>
</svg>
