<?xml version="1.0" encoding="UTF-8" standalone="no"?>
<!DOCTYPE svg PUBLIC "-//W3C//DTD SVG 1.1//EN" "http://www.w3.org/Graphics/SVG/1.1/DTD/svg11.dtd">
<!-- Created with Vectornator (http://vectornator.io/) -->
<svg height="100%" stroke-miterlimit="10" style="fill-rule:nonzero;clip-rule:evenodd;stroke-linecap:round;stroke-linejoin:round;" version="1.1" viewBox="0 0 159.086 42.3179" width="100%" xml:space="preserve" xmlns="http://www.w3.org/2000/svg" xmlns:vectornator="http://vectornator.io" xmlns:xlink="http://www.w3.org/1999/xlink">
<defs/>
<g id="Layer-1" vectornator:layerName="Layer 1">
<g fill="#63d38f" opacity="1" stroke="none" vectornator:layerName="Text 1">
<path d="M9.66482 10.0226L22.9975 10.0226L22.9975 14.0141L13.9889 14.0141L13.9889 17.673L22.4985 17.673L22.4985 21.6644L13.9889 21.6644L13.9889 25.6559L23.4964 25.6559L23.4964 29.6474L9.66482 29.6474L9.66482 10.0226Z"/>
<path d="M31.8397 19.3915L25.3536 10.0226L30.7864 10.0226L34.9719 16.8968L38.9911 10.0226L44.2299 10.0226L37.8824 19.3084L44.9783 29.6474L39.5455 29.6474L34.7502 21.7476L30.0934 29.6474L24.9655 29.6474L31.8397 19.3915Z"/>
<path d="M46.9741 10.0226L54.2641 10.0226C55.2804 10.0226 56.2414 10.115 57.1468 10.2998C58.0523 10.4846 58.8423 10.8034 59.5168 11.2561C60.1913 11.7088 60.7271 12.3186 61.1244 13.0855C61.5217 13.8524 61.7204 14.8179 61.7204 15.9821C61.7204 17.1278 61.5356 18.0887 61.166 18.8649C60.7964 19.641 60.2883 20.26 59.6415 20.722C58.9947 21.184 58.2279 21.512 57.3409 21.706C56.4539 21.9 55.4929 21.9971 54.4581 21.9971L51.2982 21.9971L51.2982 29.6474L46.9741 29.6474L46.9741 10.0226ZM51.2982 18.3382L54.1809 18.3382C54.569 18.3382 54.9432 18.3012 55.3035 18.2273C55.6639 18.1534 55.9873 18.0287 56.2737 17.8531C56.5601 17.6776 56.7911 17.4373 56.9667 17.1324C57.1422 16.8275 57.23 16.4441 57.23 15.9821C57.23 15.4832 57.1145 15.0813 56.8835 14.7764C56.6525 14.4715 56.3568 14.2358 55.9965 14.0695C55.6362 13.9032 55.2342 13.797 54.7907 13.7508C54.3472 13.7046 53.9222 13.6815 53.5157 13.6815L51.2982 13.6815L51.2982 18.3382Z"/>
<path d="M64.6031 10.0226L77.9358 10.0226L77.9358 14.0141L68.9272 14.0141L68.9272 17.673L77.4369 17.673L77.4369 21.6644L68.9272 21.6644L68.9272 25.6559L78.4347 25.6559L78.4347 29.6474L64.6031 29.6474L64.6031 10.0226Z"/>
<path d="M94.7333 15.1228C94.3083 14.6054 93.7862 14.2081 93.1672 13.9309C92.5481 13.6538 91.8321 13.5152 91.019 13.5152C90.2059 13.5152 89.4529 13.6722 88.7599 13.9864C88.067 14.3005 87.4664 14.7394 86.9582 15.303C86.45 15.8666 86.0527 16.5365 85.7663 17.3126C85.4799 18.0887 85.3367 18.9295 85.3367 19.835C85.3367 20.759 85.4799 21.6044 85.7663 22.3713C86.0527 23.1381 86.4454 23.8034 86.9443 24.367C87.4433 24.9306 88.03 25.3695 88.7045 25.6836C89.379 25.9978 90.1043 26.1549 90.8804 26.1549C91.7674 26.1549 92.5527 25.9701 93.2365 25.6005C93.9202 25.2309 94.4838 24.7135 94.9273 24.0482L98.5307 26.7369C97.6992 27.9011 96.6459 28.7604 95.3708 29.3148C94.0958 29.8692 92.7837 30.1463 91.4348 30.1463C89.901 30.1463 88.4874 29.9061 87.1938 29.4257C85.9003 28.9452 84.7823 28.2569 83.8399 27.3606C82.8974 26.4644 82.1629 25.3787 81.6362 24.1037C81.1096 22.8286 80.8463 21.4057 80.8463 19.835C80.8463 18.2643 81.1096 16.8414 81.6362 15.5663C82.1629 14.2913 82.8974 13.2056 83.8399 12.3094C84.7823 11.4132 85.9003 10.7248 87.1938 10.2444C88.4874 9.76391 89.901 9.52368 91.4348 9.52368C91.9891 9.52368 92.5666 9.5745 93.1672 9.67613C93.7677 9.77777 94.3591 9.93946 94.9412 10.1612C95.5233 10.383 96.0823 10.6786 96.6181 11.0482C97.154 11.4178 97.6345 11.8705 98.0595 12.4064L94.7333 15.1228Z"/>
<path d="M104.684 13.8478L99.0851 13.8478L99.0851 10.0226L114.608 10.0226L114.608 13.8478L109.008 13.8478L109.008 29.6474L104.684 29.6474L104.684 13.8478Z"/>
<path d="M116.964 10.0226L130.296 10.0226L130.296 14.0141L121.288 14.0141L121.288 17.673L129.797 17.673L129.797 21.6644L121.288 21.6644L121.288 25.6559L130.795 25.6559L130.795 29.6474L116.964 29.6474L116.964 10.0226Z"/>
<path d="M134.26 10.0226L140.746 10.0226C142.317 10.0226 143.809 10.1982 145.223 10.5493C146.636 10.9004 147.87 11.4686 148.923 12.254C149.977 13.0393 150.813 14.0603 151.432 15.3169C152.051 16.5735 152.36 18.098 152.36 19.8904C152.36 21.4796 152.06 22.8794 151.459 24.0898C150.859 25.3002 150.05 26.3165 149.034 27.1389C148.018 27.9612 146.844 28.5849 145.514 29.0099C144.183 29.4349 142.788 29.6474 141.328 29.6474L134.26 29.6474L134.26 10.0226ZM138.584 25.6559L140.829 25.6559C141.827 25.6559 142.756 25.5543 143.615 25.351C144.474 25.1477 145.218 24.8105 145.846 24.3393C146.475 23.8681 146.969 23.249 147.329 22.4821C147.69 21.7153 147.87 20.7774 147.87 19.6687C147.87 18.7078 147.69 17.8716 147.329 17.1602C146.969 16.4487 146.484 15.862 145.874 15.4C145.264 14.9381 144.548 14.5916 143.726 14.3606C142.904 14.1296 142.04 14.0141 141.134 14.0141L138.584 14.0141L138.584 25.6559Z"/>
</g>
</g>
</svg>
