<?xml version="1.0" encoding="UTF-8" standalone="no"?>
<!DOCTYPE svg PUBLIC "-//W3C//DTD SVG 1.1//EN" "http://www.w3.org/Graphics/SVG/1.1/DTD/svg11.dtd">
<!-- Created with Vectornator (http://vectornator.io/) -->
<svg height="100%" stroke-miterlimit="10" style="fill-rule:nonzero;clip-rule:evenodd;stroke-linecap:round;stroke-linejoin:round;" version="1.1" viewBox="0 0 170.008 42.3179" width="100%" xml:space="preserve" xmlns="http://www.w3.org/2000/svg" xmlns:vectornator="http://vectornator.io" xmlns:xlink="http://www.w3.org/1999/xlink">
<defs/>
<g id="Layer-1" vectornator:layerName="Layer 1">
<g fill="#ffffff" opacity="1" stroke="none" vectornator:layerName="Text 1">
<path d="M7.37799 6.2089L7.37799 26L9.87267 26L9.87267 9.53514L9.9281 9.53514L16.1094 26L18.3546 26L24.5358 9.53514L24.5913 9.53514L24.5913 26L27.0859 26L27.0859 6.2089L23.4825 6.2089L17.2181 22.8401L10.9814 6.2089L7.37799 6.2089Z"/>
<path d="M41.0284 17.4627L32.796 17.4627C32.8329 16.9083 32.953 16.3863 33.1563 15.8966C33.3596 15.4069 33.6368 14.9772 33.9879 14.6076C34.339 14.2381 34.7594 13.947 35.2491 13.7345C35.7388 13.522 36.2885 13.4157 36.8983 13.4157C37.4897 13.4157 38.0302 13.522 38.5199 13.7345C39.0096 13.947 39.4346 14.2334 39.7949 14.5938C40.1553 14.9541 40.4417 15.3838 40.6542 15.8827C40.8667 16.3816 40.9914 16.9083 41.0284 17.4627ZM43.3013 21.4541L40.973 21.4541C40.7697 22.3966 40.3493 23.0988 39.7118 23.5608C39.0742 24.0227 38.2565 24.2537 37.2587 24.2537C36.4825 24.2537 35.8081 24.1244 35.2352 23.8657C34.6624 23.607 34.1911 23.2605 33.8216 22.8262C33.452 22.392 33.184 21.893 33.0177 21.3294C32.8514 20.7658 32.7775 20.1698 32.796 19.5416L43.5231 19.5416C43.56 18.673 43.4815 17.7583 43.2875 16.7974C43.0934 15.8365 42.7423 14.9495 42.2342 14.1364C41.726 13.3233 41.0515 12.6535 40.2107 12.1268C39.3699 11.6002 38.312 11.3368 37.0369 11.3368C36.0575 11.3368 35.1567 11.5216 34.3344 11.8912C33.512 12.2608 32.8006 12.7782 32.2 13.4435C31.5994 14.1087 31.1329 14.8941 30.8002 15.7995C30.4676 16.705 30.3013 17.7029 30.3013 18.7932C30.3383 19.8834 30.4999 20.8905 30.7864 21.8145C31.0728 22.7384 31.5024 23.533 32.0753 24.1983C32.6481 24.8635 33.355 25.381 34.1958 25.7505C35.0366 26.1201 36.0298 26.3049 37.1755 26.3049C38.8017 26.3049 40.1506 25.8984 41.2224 25.0853C42.2942 24.2722 42.9872 23.0618 43.3013 21.4541Z"/>
<path d="M45.8792 11.6695L45.8792 26L48.2352 26L48.2352 19.6247C48.2352 18.7008 48.3276 17.8831 48.5124 17.1716C48.6972 16.4602 48.9929 15.855 49.3994 15.356C49.806 14.8571 50.3419 14.4783 51.0071 14.2196C51.6724 13.9609 52.4762 13.8315 53.4186 13.8315L53.4186 11.3368C52.1436 11.2999 51.0903 11.5586 50.2587 12.113C49.4271 12.6673 48.7249 13.5266 48.1521 14.6908L48.0967 14.6908L48.0967 11.6695L45.8792 11.6695Z"/>
<path d="M64.4229 16.2708L66.8622 16.2708C66.7698 15.4207 66.548 14.6862 66.1969 14.0671C65.8458 13.4481 65.3977 12.9353 64.8526 12.5287C64.3074 12.1222 63.6791 11.8219 62.9677 11.6279C62.2562 11.4339 61.494 11.3368 60.6809 11.3368C59.5537 11.3368 58.5651 11.5355 57.715 11.9328C56.865 12.3301 56.1582 12.8752 55.5945 13.5682C55.0309 14.2612 54.6105 15.0742 54.3333 16.0074C54.0562 16.9406 53.9176 17.9431 53.9176 19.0149C53.9176 20.0867 54.0608 21.0707 54.3472 21.9669C54.6336 22.8632 55.0586 23.6347 55.6223 24.2814C56.1859 24.9282 56.8881 25.4271 57.7289 25.7783C58.5697 26.1294 59.5352 26.3049 60.6255 26.3049C62.4549 26.3049 63.9009 25.8244 64.9634 24.8635C66.026 23.9026 66.6866 22.5352 66.9453 20.7612L64.5338 20.7612C64.386 21.8699 63.984 22.7292 63.328 23.339C62.672 23.9488 61.7619 24.2537 60.5978 24.2537C59.8586 24.2537 59.2211 24.1059 58.6852 23.8102C58.1493 23.5146 57.715 23.1219 57.3824 22.6322C57.0498 22.1425 56.8049 21.5835 56.6478 20.9552C56.4908 20.3269 56.4122 19.6802 56.4122 19.0149C56.4122 18.2942 56.4862 17.5966 56.634 16.9222C56.7818 16.2477 57.0267 15.6517 57.3685 15.1343C57.7104 14.6169 58.1678 14.2011 58.7406 13.887C59.3135 13.5728 60.0249 13.4157 60.8749 13.4157C61.8728 13.4157 62.6674 13.6652 63.2587 14.1641C63.8501 14.6631 64.2381 15.3653 64.4229 16.2708Z"/>
<path d="M69.5786 6.2089L69.5786 26L71.9347 26L71.9347 17.9062C71.9347 17.2594 72.0224 16.6634 72.198 16.1183C72.3735 15.5732 72.6369 15.0973 72.988 14.6908C73.3391 14.2843 73.778 13.9701 74.3046 13.7484C74.8313 13.5266 75.4549 13.4157 76.1756 13.4157C77.0811 13.4157 77.7925 13.6745 78.31 14.1919C78.8274 14.7093 79.0861 15.4115 79.0861 16.2985L79.0861 26L81.4422 26L81.4422 16.5757C81.4422 15.7995 81.3636 15.0927 81.2065 14.4552C81.0495 13.8177 80.7769 13.2679 80.3888 12.8059C80.0008 12.344 79.4926 11.9836 78.8643 11.7249C78.236 11.4662 77.4507 11.3368 76.5082 11.3368C76.0832 11.3368 75.6443 11.383 75.1916 11.4754C74.7389 11.5678 74.3046 11.711 73.8888 11.9051C73.4731 12.0991 73.0989 12.3486 72.7662 12.6535C72.4336 12.9584 72.1749 13.3326 71.9901 13.7761L71.9347 13.7761L71.9347 6.2089L69.5786 6.2089Z"/>
<path d="M97.6853 25.9446C97.2787 26.1848 96.7151 26.3049 95.9944 26.3049C95.3846 26.3049 94.8995 26.134 94.5392 25.7921C94.1789 25.4502 93.9987 24.8913 93.9987 24.1151C93.3519 24.8913 92.5989 25.4502 91.7396 25.7921C90.8803 26.134 89.9518 26.3049 88.9539 26.3049C88.3071 26.3049 87.6927 26.231 87.1106 26.0832C86.5285 25.9353 86.025 25.7043 85.6 25.3902C85.1749 25.076 84.8377 24.6649 84.5882 24.1567C84.3388 23.6485 84.214 23.0341 84.214 22.3134C84.214 21.5003 84.3526 20.8351 84.6298 20.3177C84.907 19.8003 85.2719 19.3799 85.7247 19.0565C86.1774 18.7331 86.6948 18.4883 87.2769 18.3219C87.859 18.1556 88.455 18.017 89.0648 17.9062C89.7115 17.7768 90.326 17.6798 90.9081 17.6151C91.4902 17.5504 92.003 17.458 92.4465 17.3379C92.8899 17.2178 93.2411 17.0423 93.4998 16.8113C93.7585 16.5803 93.8878 16.243 93.8878 15.7995C93.8878 15.2821 93.7908 14.8664 93.5968 14.5522C93.4027 14.2381 93.1533 13.9978 92.8484 13.8315C92.5435 13.6652 92.2016 13.5543 91.8228 13.4989C91.444 13.4435 91.0698 13.4157 90.7002 13.4157C89.7023 13.4157 88.8707 13.6052 88.2055 13.984C87.5403 14.3628 87.1799 15.0789 87.1245 16.1322L84.7684 16.1322C84.8053 15.2452 84.9901 14.4968 85.3228 13.887C85.6554 13.2772 86.0989 12.7828 86.6533 12.404C87.2076 12.0252 87.8405 11.7526 88.552 11.5863C89.2634 11.42 90.0257 11.3368 90.8388 11.3368C91.4855 11.3368 92.1277 11.383 92.7652 11.4754C93.4027 11.5678 93.9802 11.7572 94.4976 12.0437C95.015 12.3301 95.4308 12.732 95.745 13.2494C96.0591 13.7668 96.2162 14.4413 96.2162 15.2729L96.2162 22.646C96.2162 23.2004 96.2485 23.607 96.3132 23.8657C96.3779 24.1244 96.595 24.2537 96.9646 24.2537C97.1679 24.2537 97.4081 24.2075 97.6853 24.1151L97.6853 25.9446ZM93.8601 18.5991C93.5644 18.8209 93.1764 18.9826 92.6959 19.0842C92.2155 19.1858 91.7119 19.269 91.1853 19.3337C90.6586 19.3983 90.1273 19.4723 89.5914 19.5554C89.0555 19.6386 88.5751 19.7725 88.1501 19.9573C87.725 20.1421 87.3786 20.4055 87.1106 20.7473C86.8427 21.0892 86.7087 21.5558 86.7087 22.1471C86.7087 22.5352 86.7872 22.8632 86.9443 23.1311C87.1014 23.3991 87.3046 23.6162 87.5541 23.7825C87.8036 23.9488 88.0946 24.0689 88.4273 24.1429C88.7599 24.2168 89.111 24.2537 89.4806 24.2537C90.2567 24.2537 90.9219 24.1475 91.4763 23.935C92.0307 23.7225 92.4834 23.4545 92.8345 23.1311C93.1856 22.8077 93.4443 22.4566 93.6106 22.0778C93.7769 21.699 93.8601 21.3433 93.8601 21.0106L93.8601 18.5991Z"/>
<path d="M99.875 11.6695L99.875 26L102.231 26L102.231 17.9062C102.231 17.2594 102.319 16.6634 102.494 16.1183C102.67 15.5732 102.933 15.0973 103.284 14.6908C103.636 14.2843 104.074 13.9701 104.601 13.7484C105.128 13.5266 105.751 13.4157 106.472 13.4157C107.378 13.4157 108.089 13.6745 108.606 14.1919C109.124 14.7093 109.383 15.4115 109.383 16.2985L109.383 26L111.739 26L111.739 16.5757C111.739 15.7995 111.66 15.0927 111.503 14.4552C111.346 13.8177 111.073 13.2679 110.685 12.8059C110.297 12.344 109.789 11.9836 109.161 11.7249C108.532 11.4662 107.747 11.3368 106.805 11.3368C104.68 11.3368 103.127 12.2054 102.148 13.9424L102.093 13.9424L102.093 11.6695L99.875 11.6695Z"/>
<path d="M117.005 18.9595C117.005 18.2573 117.079 17.5735 117.227 16.9083C117.375 16.243 117.615 15.6517 117.948 15.1343C118.28 14.6169 118.724 14.2011 119.278 13.887C119.832 13.5728 120.507 13.4157 121.302 13.4157C122.115 13.4157 122.808 13.5682 123.38 13.8731C123.953 14.178 124.42 14.5799 124.78 15.0789C125.141 15.5778 125.404 16.1553 125.57 16.8113C125.737 17.4673 125.82 18.1464 125.82 18.8486C125.82 19.5138 125.741 20.1698 125.584 20.8166C125.427 21.4634 125.173 22.0409 124.822 22.549C124.471 23.0572 124.018 23.4684 123.464 23.7825C122.909 24.0967 122.235 24.2537 121.44 24.2537C120.682 24.2537 120.022 24.1059 119.458 23.8102C118.895 23.5146 118.433 23.1173 118.072 22.6183C117.712 22.1194 117.444 21.5512 117.268 20.9136C117.093 20.2761 117.005 19.6247 117.005 18.9595ZM128.093 26L128.093 6.2089L125.737 6.2089L125.737 13.5821L125.681 13.5821C125.422 13.157 125.104 12.8013 124.725 12.5149C124.346 12.2285 123.944 11.9975 123.519 11.8219C123.094 11.6464 122.669 11.5216 122.244 11.4477C121.819 11.3738 121.422 11.3368 121.052 11.3368C119.962 11.3368 119.006 11.5355 118.183 11.9328C117.361 12.3301 116.677 12.866 116.132 13.5405C115.587 14.215 115.18 15.0049 114.912 15.9104C114.644 16.8159 114.51 17.7768 114.51 18.7932C114.51 19.8095 114.649 20.7704 114.926 21.6759C115.203 22.5814 115.615 23.376 116.16 24.0597C116.705 24.7434 117.389 25.2886 118.211 25.6951C119.033 26.1016 119.999 26.3049 121.108 26.3049C122.105 26.3049 123.02 26.1294 123.852 25.7783C124.683 25.4271 125.293 24.8543 125.681 24.0597L125.737 24.0597L125.737 26L128.093 26Z"/>
<path d="M134.218 9.09164L134.218 6.2089L131.862 6.2089L131.862 9.09164L134.218 9.09164ZM131.862 11.6695L131.862 26L134.218 26L134.218 11.6695L131.862 11.6695Z"/>
<path d="M139.319 21.4819L136.963 21.4819C137 22.3689 137.184 23.1219 137.517 23.7409C137.85 24.36 138.293 24.8589 138.847 25.2377C139.402 25.6166 140.039 25.8891 140.76 26.0554C141.481 26.2217 142.238 26.3049 143.033 26.3049C143.754 26.3049 144.479 26.2356 145.209 26.097C145.939 25.9584 146.595 25.7136 147.177 25.3625C147.759 25.0114 148.23 24.5494 148.591 23.9765C148.951 23.4037 149.131 22.683 149.131 21.8145C149.131 21.1308 148.997 20.5579 148.729 20.0959C148.461 19.634 148.11 19.2505 147.676 18.9456C147.242 18.6407 146.743 18.3959 146.179 18.2111C145.615 18.0263 145.038 17.8692 144.447 17.7398C143.892 17.6105 143.338 17.4858 142.783 17.3656C142.229 17.2455 141.73 17.0977 141.287 16.9222C140.843 16.7466 140.478 16.5248 140.192 16.2569C139.905 15.989 139.762 15.6517 139.762 15.2452C139.762 14.8756 139.855 14.5753 140.039 14.3443C140.224 14.1133 140.464 13.9285 140.76 13.7899C141.056 13.6514 141.384 13.5543 141.744 13.4989C142.104 13.4435 142.46 13.4157 142.811 13.4157C143.199 13.4157 143.583 13.4573 143.962 13.5405C144.34 13.6236 144.687 13.7576 145.001 13.9424C145.315 14.1272 145.574 14.372 145.777 14.6769C145.98 14.9818 146.1 15.3653 146.137 15.8273L148.494 15.8273C148.438 14.9587 148.253 14.2334 147.939 13.6514C147.625 13.0693 147.205 12.6073 146.678 12.2654C146.151 11.9236 145.546 11.6833 144.862 11.5447C144.179 11.4061 143.43 11.3368 142.617 11.3368C141.989 11.3368 141.356 11.4154 140.718 11.5725C140.081 11.7295 139.508 11.9698 139 12.2931C138.492 12.6165 138.076 13.0369 137.753 13.5543C137.429 14.0718 137.267 14.6908 137.267 15.4115C137.267 16.3354 137.498 17.0561 137.96 17.5735C138.422 18.091 139 18.4929 139.693 18.7793C140.386 19.0657 141.139 19.2875 141.952 19.4445C142.765 19.6016 143.518 19.7772 144.211 19.9712C144.904 20.1652 145.481 20.4193 145.943 20.7335C146.405 21.0476 146.636 21.5096 146.636 22.1194C146.636 22.5629 146.525 22.9279 146.304 23.2143C146.082 23.5007 145.8 23.7178 145.458 23.8657C145.116 24.0135 144.742 24.1151 144.336 24.1706C143.929 24.226 143.541 24.2537 143.172 24.2537C142.691 24.2537 142.224 24.2075 141.772 24.1151C141.319 24.0227 140.912 23.8703 140.552 23.6578C140.192 23.4453 139.901 23.1588 139.679 22.7985C139.457 22.4382 139.337 21.9993 139.319 21.4819Z"/>
<path d="M161.688 17.4627L153.455 17.4627C153.492 16.9083 153.612 16.3863 153.815 15.8966C154.019 15.4069 154.296 14.9772 154.647 14.6076C154.998 14.2381 155.419 13.947 155.908 13.7345C156.398 13.522 156.948 13.4157 157.558 13.4157C158.149 13.4157 158.689 13.522 159.179 13.7345C159.669 13.947 160.094 14.2334 160.454 14.5938C160.814 14.9541 161.101 15.3838 161.313 15.8827C161.526 16.3816 161.651 16.9083 161.688 17.4627ZM163.961 21.4541L161.632 21.4541C161.429 22.3966 161.008 23.0988 160.371 23.5608C159.733 24.0227 158.916 24.2537 157.918 24.2537C157.142 24.2537 156.467 24.1244 155.894 23.8657C155.322 23.607 154.85 23.2605 154.481 22.8262C154.111 22.392 153.843 21.893 153.677 21.3294C153.511 20.7658 153.437 20.1698 153.455 19.5416L164.182 19.5416C164.219 18.673 164.141 17.7583 163.947 16.7974C163.753 15.8365 163.402 14.9495 162.893 14.1364C162.385 13.3233 161.711 12.6535 160.87 12.1268C160.029 11.6002 158.971 11.3368 157.696 11.3368C156.717 11.3368 155.816 11.5216 154.994 11.8912C154.171 12.2608 153.46 12.7782 152.859 13.4435C152.259 14.1087 151.792 14.8941 151.459 15.7995C151.127 16.705 150.96 17.7029 150.96 18.7932C150.997 19.8834 151.159 20.8905 151.446 21.8145C151.732 22.7384 152.162 23.533 152.734 24.1983C153.307 24.8635 154.014 25.381 154.855 25.7505C155.696 26.1201 156.689 26.3049 157.835 26.3049C159.461 26.3049 160.81 25.8984 161.882 25.0853C162.953 24.2722 163.646 23.0618 163.961 21.4541Z"/>
</g>
</g>
</svg>
