<?xml version="1.0" encoding="UTF-8" standalone="no"?>
<!DOCTYPE svg PUBLIC "-//W3C//DTD SVG 1.1//EN" "http://www.w3.org/Graphics/SVG/1.1/DTD/svg11.dtd">
<!-- Created with Vectornator (http://vectornator.io/) -->
<svg height="100%" stroke-miterlimit="10" style="fill-rule:nonzero;clip-rule:evenodd;stroke-linecap:round;stroke-linejoin:round;" version="1.1" viewBox="0 0 499 124.164" width="100%" xml:space="preserve" xmlns="http://www.w3.org/2000/svg" xmlns:vectornator="http://vectornator.io" xmlns:xlink="http://www.w3.org/1999/xlink">
<defs/>
<g id="Layer-1" vectornator:layerName="Layer 1">
<g fill="#5b0003" opacity="1" stroke="none" vectornator:layerName="Text 1">
<path d="M1.61412 13.8832L34.3391 13.8832C38.6387 13.8832 42.7194 14.3012 46.5811 15.1372C50.4428 15.9733 53.8268 17.3667 56.733 19.3174C59.6393 21.2682 61.9483 23.8957 63.6602 27.2001C65.3721 30.5044 66.2281 34.6249 66.2281 39.5615C66.2281 45.5333 64.6754 50.6092 61.5701 54.7894C58.4648 58.9696 53.9263 61.6171 47.9546 62.7318L69.4528 98.4426L47.1186 98.4426L29.4423 64.6427L20.2459 64.6427L20.2459 98.4426L1.61412 98.4426L1.61412 13.8832ZM20.2459 48.8774L31.2338 48.8774C32.9059 48.8774 34.6775 48.8177 36.5486 48.6983C38.4198 48.5788 40.1118 48.2205 41.6246 47.6234C43.1374 47.0262 44.3915 46.0906 45.3868 44.8167C46.3821 43.5427 46.8797 41.7512 46.8797 39.4421C46.8797 37.2923 46.4418 35.5804 45.5659 34.3064C44.6901 33.0325 43.5754 32.0571 42.2218 31.3803C40.8682 30.7035 39.3155 30.2457 37.5638 30.0068C35.8121 29.7679 34.1002 29.6485 32.4282 29.6485L20.2459 29.6485L20.2459 48.8774Z"/>
<path d="M79.7241 13.8832L137.172 13.8832L137.172 31.0817L98.3559 31.0817L98.3559 46.847L135.022 46.847L135.022 64.0456L98.3559 64.0456L98.3559 81.2441L139.322 81.2441L139.322 98.4426L79.7241 98.4426L79.7241 13.8832Z"/>
<path d="M154.968 13.8832L211.699 13.8832L211.699 31.0817L173.599 31.0817L173.599 48.2802L208.833 48.2802L208.833 65.4788L173.599 65.4788L173.599 98.4426L154.968 98.4426L154.968 13.8832Z"/>
<path d="M220.537 56.1629C220.537 49.395 221.672 43.264 223.941 37.77C226.21 32.2761 229.375 27.5982 233.436 23.7365C237.497 19.8748 242.314 16.9088 247.888 14.8387C253.461 12.7685 259.552 11.7334 266.161 11.7334C272.77 11.7334 278.861 12.7685 284.434 14.8387C290.008 16.9088 294.825 19.8748 298.886 23.7365C302.947 27.5982 306.112 32.2761 308.381 37.77C310.65 43.264 311.785 49.395 311.785 56.1629C311.785 62.9308 310.65 69.0618 308.381 74.5558C306.112 80.0498 302.947 84.7276 298.886 88.5893C294.825 92.451 290.008 95.417 284.434 97.4872C278.861 99.5574 272.77 100.592 266.161 100.592C259.552 100.592 253.461 99.5574 247.888 97.4872C242.314 95.417 237.497 92.451 233.436 88.5893C229.375 84.7276 226.21 80.0498 223.941 74.5558C221.672 69.0618 220.537 62.9308 220.537 56.1629ZM239.885 56.1629C239.885 60.144 240.503 63.7868 241.737 67.0911C242.971 70.3955 244.742 73.2619 247.052 75.6904C249.361 78.1189 252.127 80.0099 255.352 81.3635C258.577 82.7171 262.18 83.3939 266.161 83.3939C270.142 83.3939 273.745 82.7171 276.97 81.3635C280.195 80.0099 282.961 78.1189 285.27 75.6904C287.58 73.2619 289.351 70.3955 290.585 67.0911C291.819 63.7868 292.437 60.144 292.437 56.1629C292.437 52.2614 291.819 48.6385 290.585 45.2944C289.351 41.9502 287.58 39.0639 285.27 36.6354C282.961 34.2069 280.195 32.3159 276.97 30.9623C273.745 29.6087 270.142 28.9319 266.161 28.9319C262.18 28.9319 258.577 29.6087 255.352 30.9623C252.127 32.3159 249.361 34.2069 247.052 36.6354C244.742 39.0639 242.971 41.9502 241.737 45.2944C240.503 48.6385 239.885 52.2614 239.885 56.1629Z"/>
<path d="M324.445 13.8832L357.17 13.8832C361.47 13.8832 365.55 14.3012 369.412 15.1372C373.274 15.9733 376.658 17.3667 379.564 19.3174C382.47 21.2682 384.779 23.8957 386.491 27.2001C388.203 30.5044 389.059 34.6249 389.059 39.5615C389.059 45.5333 387.506 50.6092 384.401 54.7894C381.296 58.9696 376.757 61.6171 370.785 62.7318L392.284 98.4426L369.949 98.4426L352.273 64.6427L343.077 64.6427L343.077 98.4426L324.445 98.4426L324.445 13.8832ZM343.077 48.8774L354.065 48.8774C355.737 48.8774 357.508 48.8177 359.379 48.6983C361.251 48.5788 362.943 48.2205 364.455 47.6234C365.968 47.0262 367.222 46.0906 368.218 44.8167C369.213 43.5427 369.711 41.7512 369.711 39.4421C369.711 37.2923 369.273 35.5804 368.397 34.3064C367.521 33.0325 366.406 32.0571 365.053 31.3803C363.699 30.7035 362.146 30.2457 360.395 30.0068C358.643 29.7679 356.931 29.6485 355.259 29.6485L343.077 29.6485L343.077 48.8774Z"/>
<path d="M401.838 13.8832L430.025 13.8832L449.493 69.0618L449.731 69.0618L469.319 13.8832L497.386 13.8832L497.386 98.4426L478.754 98.4426L478.754 33.5898L478.515 33.5898L456.3 98.4426L442.088 98.4426L420.709 33.5898L420.47 33.5898L420.47 98.4426L401.838 98.4426L401.838 13.8832Z"/>
</g>
</g>
</svg>
