<?xml version="1.0" encoding="UTF-8" standalone="no"?>
<!DOCTYPE svg PUBLIC "-//W3C//DTD SVG 1.1//EN" "http://www.w3.org/Graphics/SVG/1.1/DTD/svg11.dtd">
<!-- Created with Vectornator (http://vectornator.io/) -->
<svg height="100%" stroke-miterlimit="10" style="fill-rule:nonzero;clip-rule:evenodd;stroke-linecap:round;stroke-linejoin:round;" version="1.1" viewBox="0 0 499 124.164" width="100%" xml:space="preserve" xmlns="http://www.w3.org/2000/svg" xmlns:vectornator="http://vectornator.io" xmlns:xlink="http://www.w3.org/1999/xlink">
<defs/>
<clipPath id="ArtboardFrame">
<rect height="124.164" width="499" x="0" y="0"/>
</clipPath>
<g clip-path="url(#ArtboardFrame)" id="Layer-1" vectornator:layerName="Layer 1">
<g opacity="1" vectornator:layerName="Group 1">
<path d="M0 106.081L0 18.0833L40.2503 18.0833C47.7139 18.0833 53.4182 18.8036 57.3633 20.2442C61.3083 21.6848 64.4893 24.356 66.9061 28.2576C69.3228 32.1593 70.5312 36.9113 70.5312 42.5137C70.5312 47.3958 69.6072 51.6076 67.759 55.1491C65.9109 58.6906 63.3697 61.5619 60.1355 63.7628C58.0741 65.1634 55.2486 66.3239 51.6589 67.2443C54.5378 68.3248 56.6347 69.4052 57.9497 70.4857C58.8382 71.206 60.1266 72.7467 61.8148 75.1077C63.503 77.4687 64.6314 79.2895 65.2001 80.57L76.8753 106.081L49.5798 106.081L36.6784 79.1894C35.0435 75.7079 33.5863 73.447 32.3068 72.4065C30.5653 71.0459 28.5928 70.3656 26.3892 70.3656L24.2568 70.3656L24.2568 106.081L0 106.081ZM24.2568 53.7385L34.4393 53.7385C35.5411 53.7385 37.6735 53.3384 40.8367 52.538C42.436 52.1779 43.7422 51.2575 44.7551 49.7768C45.768 48.2962 46.2745 46.5955 46.2745 44.6747C46.2745 41.8334 45.4748 39.6525 43.8754 38.1319C42.2761 36.6112 39.2729 35.8509 34.8658 35.8509L24.2568 35.8509L24.2568 53.7385Z" fill="#ffffff" fill-rule="nonzero" opacity="1" stroke="none"/>
<path d="M84.5522 18.0833L149.272 18.0833L149.272 36.8713L108.756 36.8713L108.756 50.8573L146.34 50.8573L146.34 68.805L108.756 68.805L108.756 86.1524L150.445 86.1524L150.445 106.081L84.5522 106.081L84.5522 18.0833Z" fill="#ffffff" fill-rule="nonzero" opacity="1" stroke="none"/>
<path d="M163.56 18.0833L223.269 18.0833L223.269 36.9914L187.817 36.9914L187.817 52.3579L218.098 52.3579L218.098 70.1255L187.817 70.1255L187.817 106.081L163.56 106.081L163.56 18.0833Z" fill="#ffffff" fill-rule="nonzero" opacity="1" stroke="none"/>
<path d="M233.238 62.1421C233.238 47.776 236.792 36.5912 243.901 28.5878C251.009 20.5843 260.907 16.5826 273.595 16.5826C286.603 16.5826 296.626 20.5143 303.663 28.3777C310.7 36.241 314.219 47.2558 314.219 61.4218C314.219 71.7062 312.681 80.1398 309.607 86.7226C306.533 93.3055 302.09 98.4276 296.279 102.089C290.468 105.751 283.227 107.582 274.555 107.582C265.741 107.582 258.446 106.001 252.67 102.84C246.895 99.6782 242.212 94.676 238.623 87.8331C235.033 80.9902 233.238 72.4265 233.238 62.1421ZM257.388 62.2622C257.388 71.146 258.854 77.5287 261.787 81.4104C264.719 85.292 268.708 87.2329 273.755 87.2329C278.944 87.2329 282.96 85.332 285.803 81.5304C288.647 77.7288 290.068 70.9059 290.068 61.0617C290.068 52.7781 288.585 46.7255 285.617 42.9039C282.649 39.0823 278.624 37.1714 273.542 37.1714C268.673 37.1714 264.763 39.1123 261.813 42.9939C258.863 46.8756 257.388 53.2983 257.388 62.2622Z" fill="#ffffff" fill-rule="nonzero" opacity="1" stroke="none"/>
<path d="M327.546 106.081L327.546 18.0833L367.797 18.0833C375.26 18.0833 380.965 18.8036 384.91 20.2442C388.855 21.6848 392.036 24.356 394.453 28.2576C396.869 32.1593 398.078 36.9113 398.078 42.5137C398.078 47.3958 397.154 51.6076 395.305 55.1491C393.457 58.6906 390.916 61.5619 387.682 63.7628C385.621 65.1634 382.795 66.3239 379.205 67.2443C382.084 68.3248 384.181 69.4052 385.496 70.4857C386.385 71.206 387.673 72.7467 389.361 75.1077C391.049 77.4687 392.178 79.2895 392.747 80.57L404.422 106.081L377.126 106.081L364.225 79.1894C362.59 75.7079 361.133 73.447 359.853 72.4065C358.112 71.0459 356.139 70.3656 353.936 70.3656L351.803 70.3656L351.803 106.081L327.546 106.081ZM351.803 53.7385L361.986 53.7385C363.088 53.7385 365.22 53.3384 368.383 52.538C369.982 52.1779 371.289 51.2575 372.302 49.7768C373.314 48.2962 373.821 46.5955 373.821 44.6747C373.821 41.8334 373.021 39.6525 371.422 38.1319C369.823 36.6112 366.819 35.8509 362.412 35.8509L351.803 35.8509L351.803 53.7385Z" fill="#ffffff" fill-rule="nonzero" opacity="1" stroke="none"/>
<path d="M411.885 18.0833L443.659 18.0833L455.921 71.6262L468.129 18.0833L499.796 18.0833L499.796 106.081L480.071 106.081L480.071 38.9722L464.771 106.081L446.911 106.081L431.664 38.9722L431.664 106.081L411.885 106.081L411.885 18.0833Z" fill="#ffffff" fill-rule="nonzero" opacity="1" stroke="none"/>
</g>
</g>
</svg>
