<?xml version="1.0" encoding="UTF-8" standalone="no"?>
<!DOCTYPE svg PUBLIC "-//W3C//DTD SVG 1.1//EN" "http://www.w3.org/Graphics/SVG/1.1/DTD/svg11.dtd">
<!-- Created with Vectornator (http://vectornator.io/) -->
<svg height="100%" stroke-miterlimit="10" style="fill-rule:nonzero;clip-rule:evenodd;stroke-linecap:round;stroke-linejoin:round;" version="1.1" viewBox="0 0 159.086 42.3179" width="100%" xml:space="preserve" xmlns="http://www.w3.org/2000/svg" xmlns:vectornator="http://vectornator.io" xmlns:xlink="http://www.w3.org/1999/xlink">
<defs/>
<g id="Layer-1" vectornator:layerName="Layer 1">
<g fill="#a12746" opacity="1" stroke="none" vectornator:layerName="Text 1">
<path d="M11.0646 10.0226L18.6595 10.0226C19.6574 10.0226 20.6044 10.1196 21.5007 10.3137C22.3969 10.5077 23.1823 10.8311 23.8568 11.2838C24.5312 11.7366 25.0671 12.3464 25.4644 13.1132C25.8617 13.8801 26.0604 14.8364 26.0604 15.9821C26.0604 17.3681 25.7 18.5461 24.9794 19.5162C24.2587 20.4864 23.2054 21.1008 21.8194 21.3595L26.8088 29.6474L21.6254 29.6474L17.5231 21.803L15.3887 21.803L15.3887 29.6474L11.0646 29.6474L11.0646 10.0226ZM15.3887 18.1442L17.9388 18.1442C18.3269 18.1442 18.7381 18.1303 19.1723 18.1026C19.6066 18.0749 19.9992 17.9917 20.3504 17.8531C20.7015 17.7145 20.9925 17.4974 21.2235 17.2017C21.4545 16.9061 21.57 16.4903 21.57 15.9544C21.57 15.4555 21.4683 15.0582 21.2651 14.7625C21.0618 14.4668 20.8031 14.2405 20.4889 14.0834C20.1748 13.9263 19.8145 13.8201 19.4079 13.7646C19.0014 13.7092 18.6041 13.6815 18.216 13.6815L15.3887 13.6815L15.3887 18.1442Z"/>
<path d="M29.1926 10.0226L42.5253 10.0226L42.5253 14.0141L33.5167 14.0141L33.5167 17.673L42.0263 17.673L42.0263 21.6644L33.5167 21.6644L33.5167 25.6559L43.0242 25.6559L43.0242 29.6474L29.1926 29.6474L29.1926 10.0226Z"/>
<path d="M46.489 10.0226L53.0306 10.0226L57.5487 22.8286L57.6042 22.8286L62.15 10.0226L68.6639 10.0226L68.6639 29.6474L64.3398 29.6474L64.3398 14.5962L64.2844 14.5962L59.1287 29.6474L55.8302 29.6474L50.8686 14.5962L50.8131 14.5962L50.8131 29.6474L46.489 29.6474L46.489 10.0226Z"/>
<path d="M71.6021 19.835C71.6021 18.2643 71.8654 16.8414 72.3921 15.5663C72.9187 14.2913 73.6533 13.2056 74.5957 12.3094C75.5381 11.4132 76.6561 10.7248 77.9497 10.2444C79.2432 9.76391 80.6568 9.52368 82.1906 9.52368C83.7244 9.52368 85.138 9.76391 86.4316 10.2444C87.7251 10.7248 88.8431 11.4132 89.7855 12.3094C90.7279 13.2056 91.4625 14.2913 91.9891 15.5663C92.5158 16.8414 92.7791 18.2643 92.7791 19.835C92.7791 21.4057 92.5158 22.8286 91.9891 24.1037C91.4625 25.3787 90.7279 26.4644 89.7855 27.3606C88.8431 28.2569 87.7251 28.9452 86.4316 29.4257C85.138 29.9061 83.7244 30.1463 82.1906 30.1463C80.6568 30.1463 79.2432 29.9061 77.9497 29.4257C76.6561 28.9452 75.5381 28.2569 74.5957 27.3606C73.6533 26.4644 72.9187 25.3787 72.3921 24.1037C71.8654 22.8286 71.6021 21.4057 71.6021 19.835ZM76.0925 19.835C76.0925 20.759 76.2357 21.6044 76.5221 22.3713C76.8086 23.1381 77.2197 23.8034 77.7556 24.367C78.2915 24.9306 78.9337 25.3695 79.6821 25.6836C80.4305 25.9978 81.2666 26.1549 82.1906 26.1549C83.1146 26.1549 83.9507 25.9978 84.6991 25.6836C85.4475 25.3695 86.0897 24.9306 86.6256 24.367C87.1615 23.8034 87.5726 23.1381 87.8591 22.3713C88.1455 21.6044 88.2887 20.759 88.2887 19.835C88.2887 18.9295 88.1455 18.0887 87.8591 17.3126C87.5726 16.5365 87.1615 15.8666 86.6256 15.303C86.0897 14.7394 85.4475 14.3005 84.6991 13.9864C83.9507 13.6722 83.1146 13.5152 82.1906 13.5152C81.2666 13.5152 80.4305 13.6722 79.6821 13.9864C78.9337 14.3005 78.2915 14.7394 77.7556 15.303C77.2197 15.8666 76.8086 16.5365 76.5221 17.3126C76.2357 18.0887 76.0925 18.9295 76.0925 19.835Z"/>
<path d="M93.777 10.0226L98.7109 10.0226L103.562 22.8841L103.617 22.8841L108.551 10.0226L113.18 10.0226L105.086 29.6474L101.621 29.6474L93.777 10.0226Z"/>
<path d="M115.398 10.0226L128.73 10.0226L128.73 14.0141L119.722 14.0141L119.722 17.673L128.231 17.673L128.231 21.6644L119.722 21.6644L119.722 25.6559L129.229 25.6559L129.229 29.6474L115.398 29.6474L115.398 10.0226Z"/>
<path d="M132.694 10.0226L139.18 10.0226C140.751 10.0226 142.243 10.1982 143.657 10.5493C145.07 10.9004 146.304 11.4686 147.357 12.254C148.41 13.0393 149.247 14.0603 149.866 15.3169C150.485 16.5735 150.794 18.098 150.794 19.8904C150.794 21.4796 150.494 22.8794 149.893 24.0898C149.293 25.3002 148.484 26.3165 147.468 27.1389C146.452 27.9612 145.278 28.5849 143.948 29.0099C142.617 29.4349 141.222 29.6474 139.762 29.6474L132.694 29.6474L132.694 10.0226ZM137.018 25.6559L139.263 25.6559C140.261 25.6559 141.19 25.5543 142.049 25.351C142.908 25.1477 143.652 24.8105 144.28 24.3393C144.909 23.8681 145.403 23.249 145.763 22.4821C146.124 21.7153 146.304 20.7774 146.304 19.6687C146.304 18.7078 146.124 17.8716 145.763 17.1602C145.403 16.4487 144.918 15.862 144.308 15.4C143.698 14.9381 142.982 14.5916 142.16 14.3606C141.338 14.1296 140.474 14.0141 139.568 14.0141L137.018 14.0141L137.018 25.6559Z"/>
</g>
</g>
</svg>
