<?xml version="1.0" encoding="UTF-8" standalone="no"?>
<!DOCTYPE svg PUBLIC "-//W3C//DTD SVG 1.1//EN" "http://www.w3.org/Graphics/SVG/1.1/DTD/svg11.dtd">
<!-- Created with Vectornator (http://vectornator.io/) -->
<svg height="100%" stroke-miterlimit="10" style="fill-rule:nonzero;clip-rule:evenodd;stroke-linecap:round;stroke-linejoin:round;" version="1.1" viewBox="0 0 215.973 55.0882" width="100%" xml:space="preserve" xmlns="http://www.w3.org/2000/svg" xmlns:vectornator="http://vectornator.io" xmlns:xlink="http://www.w3.org/1999/xlink">
<defs/>
<g id="Layer-1" vectornator:layerName="Layer 1">
<g fill="#ffffff" opacity="1" stroke="none" vectornator:layerName="Text 1">
<path d="M4.69203 12.6117L16.8395 12.6117C18.4355 12.6117 19.9502 12.7669 21.3837 13.0772C22.8172 13.3875 24.0733 13.9048 25.1521 14.6289C26.2309 15.353 27.088 16.3283 27.7234 17.5549C28.3589 18.7815 28.6766 20.311 28.6766 22.1435C28.6766 24.3601 28.1003 26.2443 26.9476 27.796C25.7949 29.3477 24.1102 30.3304 21.8935 30.7442L29.8736 44L21.5832 44L15.0218 31.4535L11.6081 31.4535L11.6081 44L4.69203 44L4.69203 12.6117ZM11.6081 25.6015L15.6868 25.6015C16.3075 25.6015 16.9651 25.5793 17.6597 25.535C18.3542 25.4907 18.9823 25.3576 19.5438 25.136C20.1054 24.9143 20.5709 24.567 20.9404 24.0941C21.3098 23.6212 21.4945 22.9562 21.4945 22.0991C21.4945 21.3011 21.332 20.6657 21.0069 20.1928C20.6817 19.7199 20.268 19.3578 19.7655 19.1066C19.2631 18.8554 18.6867 18.6854 18.0365 18.5967C17.3863 18.5081 16.7508 18.4637 16.1301 18.4637L11.6081 18.4637L11.6081 25.6015Z"/>
<path d="M52.9715 40.276C51.9075 41.6355 50.5627 42.6848 48.9371 43.4237C47.3116 44.1626 45.6269 44.532 43.8831 44.532C42.228 44.532 40.6689 44.266 39.2059 43.734C37.7429 43.202 36.472 42.4409 35.3932 41.4508C34.3144 40.4607 33.4646 39.2711 32.844 37.8819C32.2233 36.4928 31.913 34.9411 31.913 33.2269C31.913 31.5127 32.2233 29.961 32.844 28.5718C33.4646 27.1827 34.3144 25.9931 35.3932 25.003C36.472 24.0129 37.7429 23.2518 39.2059 22.7198C40.6689 22.1878 42.228 21.9218 43.8831 21.9218C45.42 21.9218 46.8165 22.1878 48.0726 22.7198C49.3288 23.2518 50.3928 24.0129 51.2647 25.003C52.1366 25.9931 52.809 27.1827 53.2818 28.5718C53.7547 29.961 53.9912 31.5127 53.9912 33.2269L53.9912 35.3106L38.563 35.3106C38.829 36.5815 39.4054 37.5938 40.2921 38.3474C41.1787 39.1011 42.2723 39.478 43.5727 39.478C44.6663 39.478 45.5899 39.2341 46.3436 38.7464C47.0973 38.2588 47.7549 37.6307 48.3165 36.8623L52.9715 40.276ZM47.3411 30.7885C47.3707 29.6654 47.0012 28.7048 46.2328 27.9068C45.4643 27.1088 44.4742 26.7098 43.2624 26.7098C42.5235 26.7098 41.8733 26.8281 41.3117 27.0645C40.7502 27.3009 40.2699 27.6039 39.8709 27.9733C39.4719 28.3428 39.1615 28.7713 38.9399 29.259C38.7182 29.7467 38.5926 30.2565 38.563 30.7885L47.3411 30.7885Z"/>
<path d="M70.2173 28.7935C69.242 27.5817 67.9563 26.9758 66.3603 26.9758C65.7987 26.9758 65.252 27.1088 64.72 27.3748C64.188 27.6408 63.922 28.099 63.922 28.7492C63.922 29.2812 64.1953 29.6728 64.7421 29.924C65.2889 30.1753 65.9835 30.3969 66.8258 30.589C67.6682 30.7811 68.5696 30.988 69.5302 31.2097C70.4907 31.4314 71.3922 31.7787 72.2345 32.2516C73.0769 32.7244 73.7714 33.3673 74.3182 34.1801C74.865 34.9929 75.1384 36.079 75.1384 37.4386C75.1384 38.8277 74.8354 39.973 74.2296 40.8745C73.6237 41.7759 72.8478 42.5 71.902 43.0468C70.9562 43.5936 69.8922 43.9778 68.71 44.1995C67.5278 44.4212 66.3603 44.532 65.2076 44.532C63.7003 44.532 62.1782 44.3177 60.6413 43.8892C59.1043 43.4606 57.8039 42.6995 56.7399 41.606L60.7743 37.1283C61.3949 37.8967 62.0821 38.4804 62.8358 38.8794C63.5894 39.2785 64.4687 39.478 65.4736 39.478C66.2421 39.478 66.9366 39.3671 67.5573 39.1455C68.178 38.9238 68.4883 38.5174 68.4883 37.9263C68.4883 37.3647 68.2149 36.9435 67.6682 36.6628C67.1214 36.382 66.4268 36.1455 65.5845 35.9534C64.7421 35.7613 63.8407 35.5544 62.8801 35.3327C61.9195 35.1111 61.0181 34.7786 60.1757 34.3352C59.3334 33.8919 58.6388 33.2638 58.0921 32.4511C57.5453 31.6383 57.2719 30.5521 57.2719 29.1925C57.2719 27.9216 57.5305 26.8281 58.0477 25.9118C58.565 24.9956 59.2447 24.2419 60.0871 23.6508C60.9294 23.0597 61.8974 22.6237 62.9909 22.343C64.0845 22.0622 65.1929 21.9218 66.316 21.9218C67.7347 21.9218 69.1681 22.1287 70.6164 22.5425C72.0646 22.9562 73.2912 23.6951 74.2961 24.7591L70.2173 28.7935Z"/>
<path d="M77.7541 33.2269C77.7541 31.5127 78.0644 29.961 78.6851 28.5718C79.3058 27.1827 80.1555 25.9931 81.2343 25.003C82.3131 24.0129 83.584 23.2518 85.047 22.7198C86.51 22.1878 88.0691 21.9218 89.7242 21.9218C91.3793 21.9218 92.9384 22.1878 94.4014 22.7198C95.8644 23.2518 97.1353 24.0129 98.2141 25.003C99.2929 25.9931 100.143 27.1827 100.763 28.5718C101.384 29.961 101.694 31.5127 101.694 33.2269C101.694 34.9411 101.384 36.4928 100.763 37.8819C100.143 39.2711 99.2929 40.4607 98.2141 41.4508C97.1353 42.4409 95.8644 43.202 94.4014 43.734C92.9384 44.266 91.3793 44.532 89.7242 44.532C88.0691 44.532 86.51 44.266 85.047 43.734C83.584 43.202 82.3131 42.4409 81.2343 41.4508C80.1555 40.4607 79.3058 39.2711 78.6851 37.8819C78.0644 36.4928 77.7541 34.9411 77.7541 33.2269ZM84.4042 33.2269C84.4042 34.8525 84.8697 36.1677 85.8007 37.1726C86.7317 38.1775 88.0395 38.6799 89.7242 38.6799C91.4089 38.6799 92.7167 38.1775 93.6477 37.1726C94.5788 36.1677 95.0443 34.8525 95.0443 33.2269C95.0443 31.6013 94.5788 30.2861 93.6477 29.2812C92.7167 28.2763 91.4089 27.7738 89.7242 27.7738C88.0395 27.7738 86.7317 28.2763 85.8007 29.2812C84.8697 30.2861 84.4042 31.6013 84.4042 33.2269Z"/>
<path d="M126.344 44L119.96 44L119.96 41.074L119.871 41.074C119.635 41.4878 119.332 41.9015 118.962 42.3153C118.593 42.7291 118.142 43.0985 117.61 43.4237C117.078 43.7488 116.472 44.0148 115.792 44.2217C115.113 44.4286 114.374 44.532 113.576 44.532C111.891 44.532 110.524 44.2734 109.475 43.7562C108.426 43.2389 107.613 42.5222 107.037 41.606C106.46 40.6897 106.076 39.611 105.884 38.3696C105.692 37.1283 105.596 35.7835 105.596 34.3352L105.596 22.4538L112.246 22.4538L112.246 33.0052C112.246 33.6259 112.268 34.2687 112.312 34.9337C112.357 35.5988 112.49 36.212 112.711 36.7736C112.933 37.3352 113.273 37.7933 113.731 38.1479C114.189 38.5026 114.847 38.6799 115.704 38.6799C116.561 38.6799 117.255 38.5248 117.787 38.2144C118.319 37.9041 118.726 37.4903 119.007 36.9731C119.287 36.4559 119.472 35.8721 119.561 35.2219C119.65 34.5717 119.694 33.8919 119.694 33.1826L119.694 22.4538L126.344 22.4538L126.344 44Z"/>
<path d="M131.043 22.4538L137.693 22.4538L137.693 25.9118L137.782 25.9118C138.491 24.5818 139.334 23.5843 140.309 22.9193C141.284 22.2543 142.511 21.9218 143.989 21.9218C144.373 21.9218 144.757 21.9366 145.141 21.9661C145.526 21.9957 145.88 22.0548 146.205 22.1435L146.205 28.2172C145.733 28.0694 145.267 27.9586 144.809 27.8847C144.351 27.8108 143.871 27.7738 143.368 27.7738C142.097 27.7738 141.092 27.9512 140.353 28.3058C139.614 28.6605 139.046 29.1556 138.647 29.791C138.248 30.4265 137.989 31.1875 137.871 32.0742C137.752 32.9609 137.693 33.9362 137.693 35.0002L137.693 44L131.043 44L131.043 22.4538Z"/>
<path d="M162.875 29.4142C162.55 28.9413 162.092 28.5497 161.501 28.2393C160.909 27.929 160.274 27.7738 159.594 27.7738C157.91 27.7738 156.602 28.2763 155.671 29.2812C154.74 30.2861 154.274 31.6013 154.274 33.2269C154.274 34.8525 154.74 36.1677 155.671 37.1726C156.602 38.1775 157.91 38.6799 159.594 38.6799C160.333 38.6799 160.969 38.5174 161.501 38.1923C162.033 37.8672 162.491 37.4829 162.875 37.0396L167.264 41.6503C166.23 42.7143 165.01 43.4606 163.606 43.8892C162.203 44.3177 160.865 44.532 159.594 44.532C157.939 44.532 156.38 44.266 154.917 43.734C153.454 43.202 152.183 42.4409 151.104 41.4508C150.026 40.4607 149.176 39.2711 148.555 37.8819C147.934 36.4928 147.624 34.9411 147.624 33.2269C147.624 31.5127 147.934 29.961 148.555 28.5718C149.176 27.1827 150.026 25.9931 151.104 25.003C152.183 24.0129 153.454 23.2518 154.917 22.7198C156.38 22.1878 157.939 21.9218 159.594 21.9218C160.865 21.9218 162.203 22.1361 163.606 22.5646C165.01 22.9932 166.23 23.7395 167.264 24.8035L162.875 29.4142Z"/>
<path d="M190.052 40.276C188.988 41.6355 187.643 42.6848 186.017 43.4237C184.392 44.1626 182.707 44.532 180.963 44.532C179.308 44.532 177.749 44.266 176.286 43.734C174.823 43.202 173.552 42.4409 172.473 41.4508C171.394 40.4607 170.545 39.2711 169.924 37.8819C169.303 36.4928 168.993 34.9411 168.993 33.2269C168.993 31.5127 169.303 29.961 169.924 28.5718C170.545 27.1827 171.394 25.9931 172.473 25.003C173.552 24.0129 174.823 23.2518 176.286 22.7198C177.749 22.1878 179.308 21.9218 180.963 21.9218C182.5 21.9218 183.897 22.1878 185.153 22.7198C186.409 23.2518 187.473 24.0129 188.345 25.003C189.217 25.9931 189.889 27.1827 190.362 28.5718C190.835 29.961 191.071 31.5127 191.071 33.2269L191.071 35.3106L175.643 35.3106C175.909 36.5815 176.485 37.5938 177.372 38.3474C178.259 39.1011 179.352 39.478 180.653 39.478C181.746 39.478 182.67 39.2341 183.424 38.7464C184.177 38.2588 184.835 37.6307 185.396 36.8623L190.052 40.276ZM184.421 30.7885C184.451 29.6654 184.081 28.7048 183.313 27.9068C182.544 27.1088 181.554 26.7098 180.342 26.7098C179.604 26.7098 178.953 26.8281 178.392 27.0645C177.83 27.3009 177.35 27.6039 176.951 27.9733C176.552 28.3428 176.242 28.7713 176.02 29.259C175.798 29.7467 175.673 30.2565 175.643 30.7885L184.421 30.7885Z"/>
<path d="M207.297 28.7935C206.322 27.5817 205.036 26.9758 203.44 26.9758C202.879 26.9758 202.332 27.1088 201.8 27.3748C201.268 27.6408 201.002 28.099 201.002 28.7492C201.002 29.2812 201.275 29.6728 201.822 29.924C202.369 30.1753 203.063 30.3969 203.906 30.589C204.748 30.7811 205.65 30.988 206.61 31.2097C207.571 31.4314 208.472 31.7787 209.315 32.2516C210.157 32.7244 210.851 33.3673 211.398 34.1801C211.945 34.9929 212.218 36.079 212.218 37.4386C212.218 38.8277 211.915 39.973 211.31 40.8745C210.704 41.7759 209.928 42.5 208.982 43.0468C208.036 43.5936 206.972 43.9778 205.79 44.1995C204.608 44.4212 203.44 44.532 202.288 44.532C200.78 44.532 199.258 44.3177 197.721 43.8892C196.184 43.4606 194.884 42.6995 193.82 41.606L197.854 37.1283C198.475 37.8967 199.162 38.4804 199.916 38.8794C200.669 39.2785 201.549 39.478 202.554 39.478C203.322 39.478 204.017 39.3671 204.637 39.1455C205.258 38.9238 205.568 38.5174 205.568 37.9263C205.568 37.3647 205.295 36.9435 204.748 36.6628C204.201 36.382 203.507 36.1455 202.664 35.9534C201.822 35.7613 200.921 35.5544 199.96 35.3327C199 35.1111 198.098 34.7786 197.256 34.3352C196.413 33.8919 195.719 33.2638 195.172 32.4511C194.625 31.6383 194.352 30.5521 194.352 29.1925C194.352 27.9216 194.611 26.8281 195.128 25.9118C195.645 24.9956 196.325 24.2419 197.167 23.6508C198.009 23.0597 198.977 22.6237 200.071 22.343C201.165 22.0622 202.273 21.9218 203.396 21.9218C204.815 21.9218 206.248 22.1287 207.696 22.5425C209.145 22.9562 210.371 23.6951 211.376 24.7591L207.297 28.7935Z"/>
</g>
</g>
</svg>
