<?xml version="1.0" encoding="UTF-8" standalone="no"?>
<!DOCTYPE svg PUBLIC "-//W3C//DTD SVG 1.1//EN" "http://www.w3.org/Graphics/SVG/1.1/DTD/svg11.dtd">
<!-- Created with Vectornator (http://vectornator.io/) -->
<svg height="100%" stroke-miterlimit="10" style="fill-rule:nonzero;clip-rule:evenodd;stroke-linecap:round;stroke-linejoin:round;" version="1.1" viewBox="0 0 159.086 42.3179" width="100%" xml:space="preserve" xmlns="http://www.w3.org/2000/svg" xmlns:vectornator="http://vectornator.io" xmlns:xlink="http://www.w3.org/1999/xlink">
<defs/>
<g id="Layer-1" vectornator:layerName="Layer 1">
<g fill="#c67940" opacity="1" stroke="none" vectornator:layerName="Text 1">
<path d="M18.5342 23.7276C18.5342 24.8918 18.3587 25.9636 18.0076 26.943C17.6565 27.9224 17.1344 28.7724 16.4415 29.4931C15.7485 30.2138 14.8846 30.7774 13.8498 31.1839C12.8149 31.5905 11.623 31.7937 10.2741 31.7937C8.90661 31.7937 7.70547 31.5905 6.67064 31.1839C5.63581 30.7774 4.77192 30.2138 4.07895 29.4931C3.38599 28.7724 2.86395 27.9224 2.51285 26.943C2.16175 25.9636 1.98619 24.8918 1.98619 23.7276L1.98619 11.67L6.3103 11.67L6.3103 23.5613C6.3103 24.1711 6.40732 24.7347 6.60135 25.2521C6.79538 25.7696 7.06794 26.2177 7.41905 26.5965C7.77015 26.9753 8.19055 27.271 8.68024 27.4835C9.16994 27.696 9.70121 27.8023 10.2741 27.8023C10.8469 27.8023 11.3736 27.696 11.854 27.4835C12.3345 27.271 12.7503 26.9753 13.1014 26.5965C13.4525 26.2177 13.725 25.7696 13.9191 25.2521C14.1131 24.7347 14.2101 24.1711 14.2101 23.5613L14.2101 11.67L18.5342 11.67L18.5342 23.7276Z"/>
<path d="M22.5257 11.67L28.402 11.67L36.7454 25.3076L36.8008 25.3076L36.8008 11.67L41.1249 11.67L41.1249 31.2948L35.4703 31.2948L26.9052 17.3246L26.8498 17.3246L26.8498 31.2948L22.5257 31.2948L22.5257 11.67Z"/>
<path d="M45.2827 11.67L49.6068 11.67L49.6068 19.8193L57.2294 11.67L62.884 11.67L54.1526 20.7894L63.6324 31.2948L57.5898 31.2948L49.6068 21.9813L49.6068 31.2948L45.2827 31.2948L45.2827 11.67Z"/>
<path d="M65.1292 11.67L71.0056 11.67L79.3489 25.3076L79.4043 25.3076L79.4043 11.67L83.7284 11.67L83.7284 31.2948L78.0738 31.2948L69.5088 17.3246L69.4533 17.3246L69.4533 31.2948L65.1292 31.2948L65.1292 11.67Z"/>
<path d="M86.6666 21.4824C86.6666 19.9117 86.9299 18.4888 87.4566 17.2137C87.9832 15.9387 88.7178 14.853 89.6602 13.9568C90.6026 13.0606 91.7206 12.3722 93.0142 11.8918C94.3077 11.4113 95.7213 11.1711 97.2551 11.1711C98.7889 11.1711 100.203 11.4113 101.496 11.8918C102.79 12.3722 103.908 13.0606 104.85 13.9568C105.792 14.853 106.527 15.9387 107.054 17.2137C107.58 18.4888 107.844 19.9117 107.844 21.4824C107.844 23.0531 107.58 24.476 107.054 25.7511C106.527 27.0261 105.792 28.1118 104.85 29.008C103.908 29.9043 102.79 30.5926 101.496 31.0731C100.203 31.5535 98.7889 31.7937 97.2551 31.7937C95.7213 31.7937 94.3077 31.5535 93.0142 31.0731C91.7206 30.5926 90.6026 29.9043 89.6602 29.008C88.7178 28.1118 87.9832 27.0261 87.4566 25.7511C86.9299 24.476 86.6666 23.0531 86.6666 21.4824ZM91.157 21.4824C91.157 22.4064 91.3002 23.2518 91.5867 24.0187C91.8731 24.7856 92.2842 25.4508 92.8201 26.0144C93.356 26.578 93.9982 27.0169 94.7466 27.331C95.495 27.6452 96.3312 27.8023 97.2551 27.8023C98.1791 27.8023 99.0152 27.6452 99.7636 27.331C100.512 27.0169 101.154 26.578 101.69 26.0144C102.226 25.4508 102.637 24.7856 102.924 24.0187C103.21 23.2518 103.353 22.4064 103.353 21.4824C103.353 20.5769 103.21 19.7361 102.924 18.96C102.637 18.1839 102.226 17.514 101.69 16.9504C101.154 16.3868 100.512 15.9479 99.7636 15.6338C99.0152 15.3196 98.1791 15.1626 97.2551 15.1626C96.3312 15.1626 95.495 15.3196 94.7466 15.6338C93.9982 15.9479 93.356 16.3868 92.8201 16.9504C92.2842 17.514 91.8731 18.1839 91.5867 18.96C91.3002 19.7361 91.157 20.5769 91.157 21.4824Z"/>
<path d="M108.731 11.67L113.443 11.67L116.575 24.2543L116.63 24.2543L120.733 11.67L124.752 11.67L128.827 24.5869L128.882 24.5869L132.181 11.67L136.56 11.67L130.822 31.2948L126.969 31.2948L122.645 17.7127L122.59 17.7127L118.266 31.2948L114.552 31.2948L108.731 11.67Z"/>
<path d="M138.5 11.67L144.377 11.67L152.72 25.3076L152.776 25.3076L152.776 11.67L157.1 11.67L157.1 31.2948L151.445 31.2948L142.88 17.3246L142.825 17.3246L142.825 31.2948L138.5 31.2948L138.5 11.67Z"/>
</g>
</g>
</svg>
