<?xml version="1.0" encoding="UTF-8" standalone="no"?>
<!DOCTYPE svg PUBLIC "-//W3C//DTD SVG 1.1//EN" "http://www.w3.org/Graphics/SVG/1.1/DTD/svg11.dtd">
<!-- Created with Vectornator (http://vectornator.io/) -->
<svg height="100%" stroke-miterlimit="10" style="fill-rule:nonzero;clip-rule:evenodd;stroke-linecap:round;stroke-linejoin:round;" version="1.1" viewBox="0 0 431.187 186.263" width="100%" xml:space="preserve" xmlns="http://www.w3.org/2000/svg" xmlns:vectornator="http://vectornator.io" xmlns:xlink="http://www.w3.org/1999/xlink">
<defs/>
<g id="Layer-1" vectornator:layerName="Layer 1">
<g fill="#000000" opacity="1" stroke="none" vectornator:layerName="Text 1">
<path d="M13.5526 12.6117L21.0893 12.6117L26.099 32.7392L26.1877 32.7392L32.7491 12.6117L39.1775 12.6117L45.6946 33.2712L45.7832 33.2712L51.0589 12.6117L58.0637 12.6117L48.8866 44L42.7242 44L35.8081 22.2765L35.7195 22.2765L28.8034 44L22.8627 44L13.5526 12.6117Z"/>
<path d="M79.9202 40.276C78.8562 41.6355 77.5114 42.6848 75.8858 43.4237C74.2603 44.1626 72.5756 44.532 70.8318 44.532C69.1767 44.532 67.6176 44.266 66.1546 43.734C64.6916 43.202 63.4207 42.4409 62.3419 41.4508C61.2631 40.4607 60.4134 39.2711 59.7927 37.8819C59.172 36.4928 58.8617 34.9411 58.8617 33.2269C58.8617 31.5127 59.172 29.961 59.7927 28.5718C60.4134 27.1827 61.2631 25.9931 62.3419 25.003C63.4207 24.0129 64.6916 23.2518 66.1546 22.7198C67.6176 22.1878 69.1767 21.9218 70.8318 21.9218C72.3687 21.9218 73.7652 22.1878 75.0213 22.7198C76.2775 23.2518 77.3415 24.0129 78.2134 25.003C79.0853 25.9931 79.7577 27.1827 80.2306 28.5718C80.7035 29.961 80.9399 31.5127 80.9399 33.2269L80.9399 35.3106L65.5117 35.3106C65.7777 36.5815 66.3541 37.5938 67.2408 38.3474C68.1274 39.1011 69.221 39.478 70.5215 39.478C71.615 39.478 72.5386 39.2341 73.2923 38.7464C74.046 38.2588 74.7036 37.6307 75.2652 36.8623L79.9202 40.276ZM74.2898 30.7885C74.3194 29.6654 73.9499 28.7048 73.1815 27.9068C72.413 27.1088 71.4229 26.7098 70.2111 26.7098C69.4722 26.7098 68.822 26.8281 68.2604 27.0645C67.6989 27.3009 67.2186 27.6039 66.8196 27.9733C66.4206 28.3428 66.1103 28.7713 65.8886 29.259C65.6669 29.7467 65.5413 30.2565 65.5117 30.7885L74.2898 30.7885Z"/>
<path d="M111.619 41.2956L111.53 41.2956C110.791 42.4483 109.809 43.2759 108.582 43.7783C107.355 44.2808 106.062 44.532 104.703 44.532C103.698 44.532 102.73 44.3916 101.799 44.1108C100.868 43.8301 100.048 43.4089 99.3384 42.8473C98.6291 42.2858 98.0675 41.5912 97.6537 40.7636C97.2399 39.9361 97.0331 38.9755 97.0331 37.8819C97.0331 36.6406 97.2621 35.5914 97.7202 34.7342C98.1783 33.8771 98.799 33.1678 99.5823 32.6062C100.365 32.0447 101.26 31.6087 102.264 31.2984C103.269 30.988 104.311 30.759 105.39 30.6112C106.469 30.4634 107.548 30.3748 108.626 30.3452C109.705 30.3156 110.703 30.3009 111.619 30.3009C111.619 29.1186 111.198 28.1802 110.355 27.4857C109.513 26.7911 108.516 26.4438 107.363 26.4438C106.269 26.4438 105.272 26.6729 104.37 27.131C103.469 27.5891 102.663 28.2172 101.954 29.0152L98.4074 25.3798C99.6488 24.2271 101.097 23.3626 102.752 22.7863C104.407 22.21 106.121 21.9218 107.895 21.9218C109.846 21.9218 111.449 22.1656 112.705 22.6533C113.961 23.141 114.966 23.8577 115.72 24.8035C116.473 25.7493 116.998 26.9093 117.294 28.2837C117.589 29.658 117.737 31.2467 117.737 33.0496L117.737 44L111.619 44L111.619 41.2956ZM109.979 34.5569C109.476 34.5569 108.848 34.5791 108.094 34.6234C107.341 34.6677 106.617 34.7934 105.922 35.0002C105.227 35.2071 104.636 35.5175 104.149 35.9313C103.661 36.345 103.417 36.9214 103.417 37.6603C103.417 38.4583 103.757 39.0494 104.437 39.4336C105.117 39.8178 105.826 40.01 106.565 40.01C107.215 40.01 107.843 39.9213 108.449 39.744C109.055 39.5666 109.594 39.3154 110.067 38.9903C110.54 38.6652 110.917 38.2514 111.198 37.7489C111.478 37.2465 111.619 36.6554 111.619 35.9756L111.619 34.5569L109.979 34.5569Z"/>
<path d="M121.904 22.4538L128.554 22.4538L128.554 25.9118L128.643 25.9118C129.352 24.5818 130.195 23.5843 131.17 22.9193C132.145 22.2543 133.372 21.9218 134.85 21.9218C135.234 21.9218 135.618 21.9366 136.002 21.9661C136.387 21.9957 136.741 22.0548 137.066 22.1435L137.066 28.2172C136.594 28.0694 136.128 27.9586 135.67 27.8847C135.212 27.8108 134.732 27.7738 134.229 27.7738C132.958 27.7738 131.953 27.9512 131.214 28.3058C130.476 28.6605 129.907 29.1556 129.508 29.791C129.109 30.4265 128.85 31.1875 128.732 32.0742C128.613 32.9609 128.554 33.9362 128.554 35.0002L128.554 44L121.904 44L121.904 22.4538Z"/>
<path d="M159.544 40.276C158.48 41.6355 157.135 42.6848 155.509 43.4237C153.884 44.1626 152.199 44.532 150.455 44.532C148.8 44.532 147.241 44.266 145.778 43.734C144.315 43.202 143.044 42.4409 141.965 41.4508C140.887 40.4607 140.037 39.2711 139.416 37.8819C138.795 36.4928 138.485 34.9411 138.485 33.2269C138.485 31.5127 138.795 29.961 139.416 28.5718C140.037 27.1827 140.887 25.9931 141.965 25.003C143.044 24.0129 144.315 23.2518 145.778 22.7198C147.241 22.1878 148.8 21.9218 150.455 21.9218C151.992 21.9218 153.389 22.1878 154.645 22.7198C155.901 23.2518 156.965 24.0129 157.837 25.003C158.709 25.9931 159.381 27.1827 159.854 28.5718C160.327 29.961 160.563 31.5127 160.563 33.2269L160.563 35.3106L145.135 35.3106C145.401 36.5815 145.978 37.5938 146.864 38.3474C147.751 39.1011 148.844 39.478 150.145 39.478C151.238 39.478 152.162 39.2341 152.916 38.7464C153.669 38.2588 154.327 37.6307 154.889 36.8623L159.544 40.276ZM153.913 30.7885C153.943 29.6654 153.573 28.7048 152.805 27.9068C152.036 27.1088 151.046 26.7098 149.835 26.7098C149.096 26.7098 148.445 26.8281 147.884 27.0645C147.322 27.3009 146.842 27.6039 146.443 27.9733C146.044 28.3428 145.734 28.7713 145.512 29.259C145.29 29.7467 145.165 30.2565 145.135 30.7885L153.913 30.7885Z"/>
<path d="M192.395 27.7738L186.543 27.7738L186.543 34.9559C186.543 35.547 186.573 36.0864 186.632 36.5741C186.691 37.0618 186.824 37.4829 187.031 37.8376C187.238 38.1923 187.555 38.4657 187.984 38.6578C188.412 38.8499 188.981 38.946 189.691 38.946C190.045 38.946 190.511 38.909 191.087 38.8351C191.663 38.7612 192.099 38.5913 192.395 38.3253L192.395 43.867C191.656 44.133 190.888 44.3103 190.09 44.399C189.292 44.4877 188.508 44.532 187.74 44.532C186.617 44.532 185.582 44.4138 184.637 44.1773C183.691 43.9409 182.863 43.5641 182.154 43.0468C181.445 42.5296 180.89 41.8572 180.491 41.0296C180.092 40.2021 179.893 39.1972 179.893 38.0149L179.893 27.7738L175.637 27.7738L175.637 22.4538L179.893 22.4538L179.893 16.0697L186.543 16.0697L186.543 22.4538L192.395 22.4538L192.395 27.7738Z"/>
<path d="M202.414 10.4837L202.414 25.3798L202.503 25.3798C202.651 24.966 202.902 24.5523 203.257 24.1385C203.611 23.7247 204.04 23.3552 204.542 23.0301C205.045 22.705 205.636 22.439 206.316 22.2321C206.996 22.0252 207.734 21.9218 208.532 21.9218C210.217 21.9218 211.577 22.1804 212.611 22.6976C213.646 23.2148 214.451 23.9316 215.027 24.8478C215.604 25.764 215.995 26.8428 216.202 28.0842C216.409 29.3255 216.513 30.6703 216.513 32.1185L216.513 44L209.863 44L209.863 33.4486C209.863 32.8279 209.84 32.185 209.796 31.52C209.752 30.855 209.619 30.2418 209.397 29.6802C209.175 29.1186 208.835 28.6605 208.377 28.3058C207.919 27.9512 207.262 27.7738 206.404 27.7738C205.547 27.7738 204.853 27.929 204.321 28.2393C203.789 28.5497 203.382 28.9635 203.102 29.4807C202.821 29.9979 202.636 30.5816 202.547 31.2319C202.459 31.8821 202.414 32.5619 202.414 33.2712L202.414 44L195.764 44L195.764 10.4837L202.414 10.4837Z"/>
<path d="M241.605 40.276C240.541 41.6355 239.197 42.6848 237.571 43.4237C235.946 44.1626 234.261 44.532 232.517 44.532C230.862 44.532 229.303 44.266 227.84 43.734C226.377 43.202 225.106 42.4409 224.027 41.4508C222.948 40.4607 222.099 39.2711 221.478 37.8819C220.857 36.4928 220.547 34.9411 220.547 33.2269C220.547 31.5127 220.857 29.961 221.478 28.5718C222.099 27.1827 222.948 25.9931 224.027 25.003C225.106 24.0129 226.377 23.2518 227.84 22.7198C229.303 22.1878 230.862 21.9218 232.517 21.9218C234.054 21.9218 235.45 22.1878 236.707 22.7198C237.963 23.2518 239.027 24.0129 239.899 25.003C240.771 25.9931 241.443 27.1827 241.916 28.5718C242.389 29.961 242.625 31.5127 242.625 33.2269L242.625 35.3106L227.197 35.3106C227.463 36.5815 228.039 37.5938 228.926 38.3474C229.813 39.1011 230.906 39.478 232.207 39.478C233.3 39.478 234.224 39.2341 234.978 38.7464C235.731 38.2588 236.389 37.6307 236.95 36.8623L241.605 40.276ZM235.975 30.7885C236.005 29.6654 235.635 28.7048 234.867 27.9068C234.098 27.1088 233.108 26.7098 231.896 26.7098C231.157 26.7098 230.507 26.8281 229.946 27.0645C229.384 27.3009 228.904 27.6039 228.505 27.9733C228.106 28.3428 227.796 28.7713 227.574 29.259C227.352 29.7467 227.227 30.2565 227.197 30.7885L235.975 30.7885Z"/>
<path d="M262.088 27.7738L257.699 27.7738L257.699 22.4538L262.088 22.4538L262.088 18.6411C262.088 17.4588 262.191 16.3431 262.398 15.2939C262.605 14.2447 263.004 13.321 263.595 12.523C264.186 11.725 265.036 11.097 266.144 10.6388C267.253 10.1807 268.708 9.95166 270.511 9.95166C271.191 9.95166 271.856 9.98122 272.506 10.0403C273.156 10.0994 273.792 10.2029 274.412 10.3507L274.102 15.9811C273.718 15.8333 273.363 15.7224 273.038 15.6486C272.713 15.5747 272.344 15.5377 271.93 15.5377C270.866 15.5377 270.068 15.7668 269.536 16.2249C269.004 16.683 268.738 17.6214 268.738 19.0401L268.738 22.4538L273.659 22.4538L273.659 27.7738L268.738 27.7738L268.738 44L262.088 44L262.088 27.7738Z"/>
<path d="M275.388 33.2269C275.388 31.5127 275.698 29.961 276.319 28.5718C276.94 27.1827 277.789 25.9931 278.868 25.003C279.947 24.0129 281.218 23.2518 282.681 22.7198C284.144 22.1878 285.703 21.9218 287.358 21.9218C289.013 21.9218 290.572 22.1878 292.035 22.7198C293.498 23.2518 294.769 24.0129 295.848 25.003C296.927 25.9931 297.776 27.1827 298.397 28.5718C299.018 29.961 299.328 31.5127 299.328 33.2269C299.328 34.9411 299.018 36.4928 298.397 37.8819C297.776 39.2711 296.927 40.4607 295.848 41.4508C294.769 42.4409 293.498 43.202 292.035 43.734C290.572 44.266 289.013 44.532 287.358 44.532C285.703 44.532 284.144 44.266 282.681 43.734C281.218 43.202 279.947 42.4409 278.868 41.4508C277.789 40.4607 276.94 39.2711 276.319 37.8819C275.698 36.4928 275.388 34.9411 275.388 33.2269ZM282.038 33.2269C282.038 34.8525 282.503 36.1677 283.434 37.1726C284.365 38.1775 285.673 38.6799 287.358 38.6799C289.043 38.6799 290.35 38.1775 291.281 37.1726C292.212 36.1677 292.678 34.8525 292.678 33.2269C292.678 31.6013 292.212 30.2861 291.281 29.2812C290.35 28.2763 289.043 27.7738 287.358 27.7738C285.673 27.7738 284.365 28.2763 283.434 29.2812C282.503 30.2861 282.038 31.6013 282.038 33.2269Z"/>
<path d="M303.229 22.4538L309.879 22.4538L309.879 25.9118L309.968 25.9118C310.678 24.5818 311.52 23.5843 312.495 22.9193C313.471 22.2543 314.697 21.9218 316.175 21.9218C316.559 21.9218 316.943 21.9366 317.328 21.9661C317.712 21.9957 318.066 22.0548 318.392 22.1435L318.392 28.2172C317.919 28.0694 317.453 27.9586 316.995 27.8847C316.537 27.8108 316.057 27.7738 315.554 27.7738C314.283 27.7738 313.278 27.9512 312.54 28.3058C311.801 28.6605 311.232 29.1556 310.833 29.791C310.434 30.4265 310.175 31.1875 310.057 32.0742C309.939 32.9609 309.879 33.9362 309.879 35.0002L309.879 44L303.229 44L303.229 22.4538Z"/>
<path d="M335.061 29.4142C334.736 28.9413 334.278 28.5497 333.687 28.2393C333.096 27.929 332.46 27.7738 331.78 27.7738C330.096 27.7738 328.788 28.2763 327.857 29.2812C326.926 30.2861 326.46 31.6013 326.46 33.2269C326.46 34.8525 326.926 36.1677 327.857 37.1726C328.788 38.1775 330.096 38.6799 331.78 38.6799C332.519 38.6799 333.155 38.5174 333.687 38.1923C334.219 37.8672 334.677 37.4829 335.061 37.0396L339.45 41.6503C338.416 42.7143 337.196 43.4606 335.793 43.8892C334.389 44.3177 333.051 44.532 331.78 44.532C330.125 44.532 328.566 44.266 327.103 43.734C325.64 43.202 324.369 42.4409 323.29 41.4508C322.212 40.4607 321.362 39.2711 320.741 37.8819C320.121 36.4928 319.81 34.9411 319.81 33.2269C319.81 31.5127 320.121 29.961 320.741 28.5718C321.362 27.1827 322.212 25.9931 323.29 25.003C324.369 24.0129 325.64 23.2518 327.103 22.7198C328.566 22.1878 330.125 21.9218 331.78 21.9218C333.051 21.9218 334.389 22.1361 335.793 22.5646C337.196 22.9932 338.416 23.7395 339.45 24.8035L335.061 29.4142Z"/>
<path d="M362.238 40.276C361.174 41.6355 359.829 42.6848 358.203 43.4237C356.578 44.1626 354.893 44.532 353.149 44.532C351.494 44.532 349.935 44.266 348.472 43.734C347.009 43.202 345.738 42.4409 344.659 41.4508C343.581 40.4607 342.731 39.2711 342.11 37.8819C341.489 36.4928 341.179 34.9411 341.179 33.2269C341.179 31.5127 341.489 29.961 342.11 28.5718C342.731 27.1827 343.581 25.9931 344.659 25.003C345.738 24.0129 347.009 23.2518 348.472 22.7198C349.935 22.1878 351.494 21.9218 353.149 21.9218C354.686 21.9218 356.083 22.1878 357.339 22.7198C358.595 23.2518 359.659 24.0129 360.531 25.003C361.403 25.9931 362.075 27.1827 362.548 28.5718C363.021 29.961 363.257 31.5127 363.257 33.2269L363.257 35.3106L347.829 35.3106C348.095 36.5815 348.672 37.5938 349.558 38.3474C350.445 39.1011 351.538 39.478 352.839 39.478C353.932 39.478 354.856 39.2341 355.61 38.7464C356.363 38.2588 357.021 37.6307 357.583 36.8623L362.238 40.276ZM356.607 30.7885C356.637 29.6654 356.267 28.7048 355.499 27.9068C354.73 27.1088 353.74 26.7098 352.529 26.7098C351.79 26.7098 351.139 26.8281 350.578 27.0645C350.016 27.3009 349.536 27.6039 349.137 27.9733C348.738 28.3428 348.428 28.7713 348.206 29.259C347.984 29.7467 347.859 30.2565 347.829 30.7885L356.607 30.7885Z"/>
<path d="M379.617 33.2269C379.617 31.5127 379.927 29.961 380.548 28.5718C381.168 27.1827 382.018 25.9931 383.097 25.003C384.176 24.0129 385.446 23.2518 386.909 22.7198C388.372 22.1878 389.932 21.9218 391.587 21.9218C393.242 21.9218 394.801 22.1878 396.264 22.7198C397.727 23.2518 398.998 24.0129 400.077 25.003C401.155 25.9931 402.005 27.1827 402.626 28.5718C403.246 29.961 403.557 31.5127 403.557 33.2269C403.557 34.9411 403.246 36.4928 402.626 37.8819C402.005 39.2711 401.155 40.4607 400.077 41.4508C398.998 42.4409 397.727 43.202 396.264 43.734C394.801 44.266 393.242 44.532 391.587 44.532C389.932 44.532 388.372 44.266 386.909 43.734C385.446 43.202 384.176 42.4409 383.097 41.4508C382.018 40.4607 381.168 39.2711 380.548 37.8819C379.927 36.4928 379.617 34.9411 379.617 33.2269ZM386.267 33.2269C386.267 34.8525 386.732 36.1677 387.663 37.1726C388.594 38.1775 389.902 38.6799 391.587 38.6799C393.271 38.6799 394.579 38.1775 395.51 37.1726C396.441 36.1677 396.907 34.8525 396.907 33.2269C396.907 31.6013 396.441 30.2861 395.51 29.2812C394.579 28.2763 393.271 27.7738 391.587 27.7738C389.902 27.7738 388.594 28.2763 387.663 29.2812C386.732 30.2861 386.267 31.6013 386.267 33.2269Z"/>
<path d="M409.763 27.7738L405.374 27.7738L405.374 22.4538L409.763 22.4538L409.763 18.6411C409.763 17.4588 409.867 16.3431 410.074 15.2939C410.281 14.2447 410.68 13.321 411.271 12.523C411.862 11.725 412.712 11.097 413.82 10.6388C414.928 10.1807 416.384 9.95166 418.187 9.95166C418.867 9.95166 419.532 9.98122 420.182 10.0403C420.832 10.0994 421.468 10.2029 422.088 10.3507L421.778 15.9811C421.394 15.8333 421.039 15.7224 420.714 15.6486C420.389 15.5747 420.019 15.5377 419.606 15.5377C418.542 15.5377 417.744 15.7668 417.212 16.2249C416.68 16.683 416.414 17.6214 416.414 19.0401L416.414 22.4538L421.335 22.4538L421.335 27.7738L416.414 27.7738L416.414 44L409.763 44L409.763 27.7738Z"/>
<path d="M27.6729 90.4142C27.3478 89.9413 26.8896 89.5497 26.2985 89.2393C25.7074 88.929 25.072 88.7738 24.3922 88.7738C22.7075 88.7738 21.3996 89.2763 20.4686 90.2812C19.5376 91.2861 19.0721 92.6013 19.0721 94.2269C19.0721 95.8525 19.5376 97.1677 20.4686 98.1726C21.3996 99.1775 22.7075 99.6799 24.3922 99.6799C25.1311 99.6799 25.7665 99.5174 26.2985 99.1923C26.8305 98.8672 27.2886 98.4829 27.6729 98.0396L32.0619 102.65C31.0275 103.714 29.8083 104.461 28.4044 104.889C27.0005 105.318 25.6631 105.532 24.3922 105.532C22.737 105.532 21.178 105.266 19.715 104.734C18.2519 104.202 16.981 103.441 15.9023 102.451C14.8235 101.461 13.9737 100.271 13.3531 98.8819C12.7324 97.4928 12.4221 95.9411 12.4221 94.2269C12.4221 92.5127 12.7324 90.961 13.3531 89.5718C13.9737 88.1827 14.8235 86.9931 15.9023 86.003C16.981 85.0129 18.2519 84.2518 19.715 83.7198C21.178 83.1878 22.737 82.9218 24.3922 82.9218C25.6631 82.9218 27.0005 83.1361 28.4044 83.5646C29.8083 83.9932 31.0275 84.7395 32.0619 85.8035L27.6729 90.4142Z"/>
<path d="M41.106 71.4837L41.106 86.3798L41.1947 86.3798C41.3425 85.966 41.5937 85.5523 41.9483 85.1385C42.303 84.7247 42.7316 84.3552 43.234 84.0301C43.7365 83.705 44.3276 83.439 45.0074 83.2321C45.6872 83.0252 46.4261 82.9218 47.2241 82.9218C48.9087 82.9218 50.2683 83.1804 51.3028 83.6976C52.3372 84.2148 53.1426 84.9316 53.719 85.8478C54.2953 86.764 54.6869 87.8428 54.8938 89.0842C55.1007 90.3255 55.2041 91.6703 55.2041 93.1185L55.2041 105L48.5541 105L48.5541 94.4486C48.5541 93.8279 48.5319 93.185 48.4876 92.52C48.4432 91.855 48.3102 91.2418 48.0886 90.6802C47.8669 90.1186 47.527 89.6605 47.0689 89.3058C46.6108 88.9512 45.9532 88.7738 45.096 88.7738C44.2389 88.7738 43.5444 88.929 43.0124 89.2393C42.4804 89.5497 42.074 89.9635 41.7932 90.4807C41.5124 90.9979 41.3277 91.5816 41.239 92.2319C41.1503 92.8821 41.106 93.5619 41.106 94.2712L41.106 105L34.4559 105L34.4559 71.4837L41.106 71.4837Z"/>
<path d="M73.4253 102.296L73.3367 102.296C72.5978 103.448 71.615 104.276 70.3885 104.778C69.1619 105.281 67.8688 105.532 66.5093 105.532C65.5044 105.532 64.5364 105.392 63.6054 105.111C62.6744 104.83 61.8542 104.409 61.1449 103.847C60.4355 103.286 59.874 102.591 59.4602 101.764C59.0464 100.936 58.8395 99.9755 58.8395 98.8819C58.8395 97.6406 59.0686 96.5914 59.5267 95.7342C59.9848 94.8771 60.6055 94.1678 61.3887 93.6062C62.1719 93.0447 63.066 92.6087 64.0709 92.2984C65.0758 91.988 66.1176 91.759 67.1964 91.6112C68.2752 91.4634 69.354 91.3748 70.4328 91.3452C71.5116 91.3156 72.5091 91.3009 73.4253 91.3009C73.4253 90.1186 73.0042 89.1802 72.1618 88.4857C71.3195 87.7911 70.322 87.4438 69.1693 87.4438C68.0757 87.4438 67.0782 87.6729 66.1768 88.131C65.2753 88.5891 64.4699 89.2172 63.7606 90.0152L60.2139 86.3798C61.4552 85.2271 62.9034 84.3626 64.5586 83.7863C66.2137 83.21 67.9279 82.9218 69.7013 82.9218C71.652 82.9218 73.2554 83.1656 74.5115 83.6533C75.7676 84.141 76.7725 84.8577 77.5262 85.8035C78.2799 86.7493 78.8045 87.9093 79.1 89.2837C79.3956 90.658 79.5434 92.2467 79.5434 94.0496L79.5434 105L73.4253 105L73.4253 102.296ZM71.785 95.5569C71.2825 95.5569 70.6545 95.5791 69.9008 95.6234C69.1471 95.6677 68.423 95.7934 67.7284 96.0002C67.0339 96.2071 66.4428 96.5175 65.9551 96.9313C65.4674 97.345 65.2236 97.9214 65.2236 98.6603C65.2236 99.4583 65.5635 100.049 66.2433 100.434C66.923 100.818 67.6324 101.01 68.3713 101.01C69.0215 101.01 69.6496 100.921 70.2555 100.744C70.8614 100.567 71.4007 100.315 71.8736 99.9903C72.3465 99.6652 72.7234 99.2514 73.0042 98.7489C73.2849 98.2465 73.4253 97.6554 73.4253 96.9756L73.4253 95.5569L71.785 95.5569Z"/>
<path d="M83.7108 83.4538L90.0948 83.4538L90.0948 86.3798L90.1835 86.3798C90.3904 85.966 90.6859 85.5523 91.0702 85.1385C91.4544 84.7247 91.9125 84.3552 92.4445 84.0301C92.9765 83.705 93.5824 83.439 94.2622 83.2321C94.942 83.0252 95.6809 82.9218 96.4789 82.9218C98.1636 82.9218 99.5231 83.1804 100.558 83.6976C101.592 84.2148 102.397 84.9316 102.974 85.8478C103.55 86.764 103.942 87.8428 104.149 89.0842C104.356 90.3255 104.459 91.6703 104.459 93.1185L104.459 105L97.8089 105L97.8089 94.4486C97.8089 93.8279 97.7867 93.185 97.7424 92.52C97.6981 91.855 97.5651 91.2418 97.3434 90.6802C97.1217 90.1186 96.7818 89.6605 96.3237 89.3058C95.8656 88.9512 95.208 88.7738 94.3509 88.7738C93.4937 88.7738 92.7992 88.929 92.2672 89.2393C91.7352 89.5497 91.3288 89.9635 91.048 90.4807C90.7672 90.9979 90.5825 91.5816 90.4938 92.2319C90.4052 92.8821 90.3608 93.5619 90.3608 94.2712L90.3608 105L83.7108 105L83.7108 83.4538Z"/>
<path d="M131.769 103.182C131.769 107.261 130.742 110.357 128.687 112.47C126.633 114.583 123.508 115.64 119.311 115.64C117.39 115.64 115.498 115.426 113.636 114.997C111.774 114.569 110.06 113.734 108.493 112.492L112.173 106.995C113.207 107.852 114.294 108.532 115.432 109.034C116.569 109.537 117.818 109.788 119.178 109.788C121.217 109.788 122.717 109.293 123.678 108.303C124.638 107.313 125.119 106.049 125.119 104.512L125.119 102.429L125.03 102.429C124.261 103.463 123.308 104.195 122.17 104.623C121.032 105.052 119.961 105.266 118.956 105.266C117.36 105.266 115.912 104.993 114.611 104.446C113.311 103.899 112.195 103.131 111.264 102.14C110.333 101.15 109.616 99.9755 109.114 98.6159C108.612 97.2564 108.36 95.7638 108.36 94.1382C108.36 92.7195 108.589 91.3304 109.048 89.9709C109.506 88.6113 110.156 87.4143 110.998 86.3798C111.841 85.3454 112.868 84.5104 114.079 83.875C115.291 83.2395 116.666 82.9218 118.202 82.9218C119.148 82.9218 120.013 83.0252 120.796 83.2321C121.579 83.439 122.281 83.705 122.902 84.0301C123.522 84.3552 124.054 84.7173 124.498 85.1163C124.941 85.5153 125.296 85.9069 125.562 86.2911L125.651 86.2911L125.651 83.4538L131.769 83.4538L131.769 103.182ZM115.01 94.0939C115.01 94.8032 115.143 95.4756 115.409 96.1111C115.675 96.7465 116.052 97.3081 116.54 97.7958C117.028 98.2834 117.589 98.675 118.225 98.9706C118.86 99.2662 119.562 99.4139 120.33 99.4139C121.069 99.4139 121.764 99.2662 122.414 98.9706C123.064 98.675 123.633 98.2834 124.121 97.7958C124.609 97.3081 124.986 96.7465 125.252 96.1111C125.518 95.4756 125.651 94.8032 125.651 94.0939C125.651 93.3846 125.518 92.7122 125.252 92.0767C124.986 91.4413 124.609 90.8797 124.121 90.392C123.633 89.9044 123.064 89.5127 122.414 89.2172C121.764 88.9216 121.069 88.7738 120.33 88.7738C119.562 88.7738 118.86 88.9216 118.225 89.2172C117.589 89.5127 117.028 89.9044 116.54 90.392C116.052 90.8797 115.675 91.4413 115.409 92.0767C115.143 92.7122 115.01 93.3846 115.01 94.0939Z"/>
<path d="M157.482 101.276C156.418 102.636 155.073 103.685 153.448 104.424C151.822 105.163 150.138 105.532 148.394 105.532C146.739 105.532 145.18 105.266 143.717 104.734C142.254 104.202 140.983 103.441 139.904 102.451C138.825 101.461 137.975 100.271 137.355 98.8819C136.734 97.4928 136.424 95.9411 136.424 94.2269C136.424 92.5127 136.734 90.961 137.355 89.5718C137.975 88.1827 138.825 86.9931 139.904 86.003C140.983 85.0129 142.254 84.2518 143.717 83.7198C145.18 83.1878 146.739 82.9218 148.394 82.9218C149.931 82.9218 151.327 83.1878 152.583 83.7198C153.839 84.2518 154.903 85.0129 155.775 86.003C156.647 86.9931 157.32 88.1827 157.792 89.5718C158.265 90.961 158.502 92.5127 158.502 94.2269L158.502 96.3106L143.074 96.3106C143.34 97.5815 143.916 98.5938 144.803 99.3474C145.689 100.101 146.783 100.478 148.083 100.478C149.177 100.478 150.101 100.234 150.854 99.7464C151.608 99.2588 152.266 98.6307 152.827 97.8623L157.482 101.276ZM151.852 91.7885C151.881 90.6654 151.512 89.7048 150.743 88.9068C149.975 88.1088 148.985 87.7098 147.773 87.7098C147.034 87.7098 146.384 87.8281 145.822 88.0645C145.261 88.3009 144.781 88.6039 144.382 88.9733C143.983 89.3428 143.672 89.7713 143.451 90.259C143.229 90.7467 143.103 91.2565 143.074 91.7885L151.852 91.7885Z"/>
<path d="M189.181 102.296L189.092 102.296C188.353 103.448 187.371 104.276 186.144 104.778C184.917 105.281 183.624 105.532 182.265 105.532C181.26 105.532 180.292 105.392 179.361 105.111C178.43 104.83 177.61 104.409 176.9 103.847C176.191 103.286 175.629 102.591 175.216 101.764C174.802 100.936 174.595 99.9755 174.595 98.8819C174.595 97.6406 174.824 96.5914 175.282 95.7342C175.74 94.8771 176.361 94.1678 177.144 93.6062C177.927 93.0447 178.821 92.6087 179.826 92.2984C180.831 91.988 181.873 91.759 182.952 91.6112C184.031 91.4634 185.109 91.3748 186.188 91.3452C187.267 91.3156 188.265 91.3009 189.181 91.3009C189.181 90.1186 188.76 89.1802 187.917 88.4857C187.075 87.7911 186.077 87.4438 184.925 87.4438C183.831 87.4438 182.834 87.6729 181.932 88.131C181.031 88.5891 180.225 89.2172 179.516 90.0152L175.969 86.3798C177.211 85.2271 178.659 84.3626 180.314 83.7863C181.969 83.21 183.683 82.9218 185.457 82.9218C187.407 82.9218 189.011 83.1656 190.267 83.6533C191.523 84.141 192.528 84.8577 193.282 85.8035C194.035 86.7493 194.56 87.9093 194.856 89.2837C195.151 90.658 195.299 92.2467 195.299 94.0496L195.299 105L189.181 105L189.181 102.296ZM187.54 95.5569C187.038 95.5569 186.41 95.5791 185.656 95.6234C184.903 95.6677 184.178 95.7934 183.484 96.0002C182.789 96.2071 182.198 96.5175 181.711 96.9313C181.223 97.345 180.979 97.9214 180.979 98.6603C180.979 99.4583 181.319 100.049 181.999 100.434C182.679 100.818 183.388 101.01 184.127 101.01C184.777 101.01 185.405 100.921 186.011 100.744C186.617 100.567 187.156 100.315 187.629 99.9903C188.102 99.6652 188.479 99.2514 188.76 98.7489C189.04 98.2465 189.181 97.6554 189.181 96.9756L189.181 95.5569L187.54 95.5569Z"/>
<path d="M214.141 88.7738L208.289 88.7738L208.289 95.9559C208.289 96.547 208.318 97.0864 208.377 97.5741C208.436 98.0618 208.569 98.4829 208.776 98.8376C208.983 99.1923 209.301 99.4657 209.73 99.6578C210.158 99.8499 210.727 99.946 211.436 99.946C211.791 99.946 212.257 99.909 212.833 99.8351C213.409 99.7612 213.845 99.5913 214.141 99.3253L214.141 104.867C213.402 105.133 212.633 105.31 211.835 105.399C211.037 105.488 210.254 105.532 209.486 105.532C208.363 105.532 207.328 105.414 206.382 105.177C205.437 104.941 204.609 104.564 203.9 104.047C203.19 103.53 202.636 102.857 202.237 102.03C201.838 101.202 201.639 100.197 201.639 99.0149L201.639 88.7738L197.383 88.7738L197.383 83.4538L201.639 83.4538L201.639 77.0697L208.289 77.0697L208.289 83.4538L214.141 83.4538L214.141 88.7738Z"/>
<path d="M247.701 94.4929C247.701 95.9411 247.576 97.345 247.325 98.7046C247.073 100.064 246.593 101.269 245.884 102.318C245.174 103.367 244.162 104.209 242.847 104.845C241.532 105.48 239.81 105.798 237.682 105.798C235.199 105.798 233.101 105.207 231.387 104.025C229.672 102.842 228.564 100.995 228.062 98.4829L234.401 96.9313C234.49 97.6997 234.837 98.3499 235.443 98.8819C236.049 99.4139 236.736 99.6799 237.505 99.6799C238.303 99.6799 238.923 99.4804 239.367 99.0814C239.81 98.6824 240.135 98.1874 240.342 97.5963C240.549 97.0051 240.674 96.3623 240.719 95.6677C240.763 94.9732 240.785 94.3303 240.785 93.7392L240.785 73.6117L247.701 73.6117L247.701 94.4929Z"/>
<path d="M273.193 101.276C272.129 102.636 270.784 103.685 269.159 104.424C267.533 105.163 265.849 105.532 264.105 105.532C262.45 105.532 260.891 105.266 259.428 104.734C257.965 104.202 256.694 103.441 255.615 102.451C254.536 101.461 253.686 100.271 253.066 98.8819C252.445 97.4928 252.135 95.9411 252.135 94.2269C252.135 92.5127 252.445 90.961 253.066 89.5718C253.686 88.1827 254.536 86.9931 255.615 86.003C256.694 85.0129 257.965 84.2518 259.428 83.7198C260.891 83.1878 262.45 82.9218 264.105 82.9218C265.642 82.9218 267.038 83.1878 268.294 83.7198C269.551 84.2518 270.615 85.0129 271.486 86.003C272.358 86.9931 273.031 88.1827 273.504 89.5718C273.977 90.961 274.213 92.5127 274.213 94.2269L274.213 96.3106L258.785 96.3106C259.051 97.5815 259.627 98.5938 260.514 99.3474C261.401 100.101 262.494 100.478 263.795 100.478C264.888 100.478 265.812 100.234 266.565 99.7464C267.319 99.2588 267.977 98.6307 268.538 97.8623L273.193 101.276ZM267.563 91.7885C267.592 90.6654 267.223 89.7048 266.455 88.9068C265.686 88.1088 264.696 87.7098 263.484 87.7098C262.745 87.7098 262.095 87.8281 261.534 88.0645C260.972 88.3009 260.492 88.6039 260.093 88.9733C259.694 89.3428 259.383 89.7713 259.162 90.259C258.94 90.7467 258.814 91.2565 258.785 91.7885L267.563 91.7885Z"/>
<path d="M280.553 88.7738L276.164 88.7738L276.164 83.4538L280.553 83.4538L280.553 79.6411C280.553 78.4588 280.656 77.3431 280.863 76.2939C281.07 75.2447 281.469 74.321 282.06 73.523C282.651 72.725 283.501 72.097 284.609 71.6388C285.718 71.1807 287.173 70.9517 288.976 70.9517C289.656 70.9517 290.321 70.9812 290.971 71.0403C291.621 71.0994 292.257 71.2029 292.877 71.3507L292.567 76.9811C292.183 76.8333 291.828 76.7224 291.503 76.6486C291.178 76.5747 290.809 76.5377 290.395 76.5377C289.331 76.5377 288.533 76.7668 288.001 77.2249C287.469 77.683 287.203 78.6214 287.203 80.0401L287.203 83.4538L292.124 83.4538L292.124 88.7738L287.203 88.7738L287.203 105L280.553 105L280.553 88.7738Z"/>
<path d="M296.158 88.7738L291.769 88.7738L291.769 83.4538L296.158 83.4538L296.158 79.6411C296.158 78.4588 296.262 77.3431 296.469 76.2939C296.675 75.2447 297.074 74.321 297.666 73.523C298.257 72.725 299.106 72.097 300.215 71.6388C301.323 71.1807 302.779 70.9517 304.582 70.9517C305.261 70.9517 305.926 70.9812 306.577 71.0403C307.227 71.0994 307.862 71.2029 308.483 71.3507L308.173 76.9811C307.788 76.8333 307.434 76.7224 307.109 76.6486C306.784 76.5747 306.414 76.5377 306 76.5377C304.936 76.5377 304.138 76.7668 303.606 77.2249C303.074 77.683 302.808 78.6214 302.808 80.0401L302.808 83.4538L307.729 83.4538L307.729 88.7738L302.808 88.7738L302.808 105L296.158 105L296.158 88.7738Z"/>
<path d="M330.65 101.276C329.586 102.636 328.241 103.685 326.615 104.424C324.99 105.163 323.305 105.532 321.561 105.532C319.906 105.532 318.347 105.266 316.884 104.734C315.421 104.202 314.15 103.441 313.072 102.451C311.993 101.461 311.143 100.271 310.522 98.8819C309.902 97.4928 309.591 95.9411 309.591 94.2269C309.591 92.5127 309.902 90.961 310.522 89.5718C311.143 88.1827 311.993 86.9931 313.072 86.003C314.15 85.0129 315.421 84.2518 316.884 83.7198C318.347 83.1878 319.906 82.9218 321.561 82.9218C323.098 82.9218 324.495 83.1878 325.751 83.7198C327.007 84.2518 328.071 85.0129 328.943 86.003C329.815 86.9931 330.487 88.1827 330.96 89.5718C331.433 90.961 331.67 92.5127 331.67 94.2269L331.67 96.3106L316.241 96.3106C316.507 97.5815 317.084 98.5938 317.97 99.3474C318.857 100.101 319.951 100.478 321.251 100.478C322.345 100.478 323.268 100.234 324.022 99.7464C324.776 99.2588 325.433 98.6307 325.995 97.8623L330.65 101.276ZM325.019 91.7885C325.049 90.6654 324.68 89.7048 323.911 88.9068C323.143 88.1088 322.153 87.7098 320.941 87.7098C320.202 87.7098 319.552 87.8281 318.99 88.0645C318.429 88.3009 317.948 88.6039 317.549 88.9733C317.15 89.3428 316.84 89.7713 316.618 90.259C316.397 90.7467 316.271 91.2565 316.241 91.7885L325.019 91.7885Z"/>
<path d="M335.704 83.4538L342.354 83.4538L342.354 86.9118L342.443 86.9118C343.152 85.5818 343.994 84.5843 344.97 83.9193C345.945 83.2543 347.172 82.9218 348.649 82.9218C349.034 82.9218 349.418 82.9366 349.802 82.9661C350.186 82.9957 350.541 83.0548 350.866 83.1435L350.866 89.2172C350.393 89.0694 349.928 88.9586 349.47 88.8847C349.011 88.8108 348.531 88.7738 348.029 88.7738C346.758 88.7738 345.753 88.9512 345.014 89.3058C344.275 89.6605 343.706 90.1556 343.307 90.791C342.908 91.4265 342.65 92.1875 342.531 93.0742C342.413 93.9609 342.354 94.9362 342.354 96.0002L342.354 105L335.704 105L335.704 83.4538Z"/>
<path d="M365.94 89.7935C364.964 88.5817 363.679 87.9758 362.083 87.9758C361.521 87.9758 360.974 88.1088 360.442 88.3748C359.91 88.6408 359.644 89.099 359.644 89.7492C359.644 90.2812 359.918 90.6728 360.464 90.924C361.011 91.1753 361.706 91.3969 362.548 91.589C363.39 91.7811 364.292 91.988 365.252 92.2097C366.213 92.4314 367.114 92.7787 367.957 93.2516C368.799 93.7244 369.494 94.3673 370.04 95.1801C370.587 95.9929 370.861 97.079 370.861 98.4386C370.861 99.8277 370.558 100.973 369.952 101.874C369.346 102.776 368.57 103.5 367.624 104.047C366.678 104.594 365.614 104.978 364.432 105.2C363.25 105.421 362.083 105.532 360.93 105.532C359.422 105.532 357.9 105.318 356.363 104.889C354.827 104.461 353.526 103.7 352.462 102.606L356.496 98.1283C357.117 98.8967 357.804 99.4804 358.558 99.8794C359.312 100.278 360.191 100.478 361.196 100.478C361.964 100.478 362.659 100.367 363.28 100.145C363.9 99.9238 364.211 99.5174 364.211 98.9263C364.211 98.3647 363.937 97.9435 363.39 97.6628C362.844 97.382 362.149 97.1455 361.307 96.9534C360.464 96.7613 359.563 96.5544 358.602 96.3327C357.642 96.1111 356.74 95.7786 355.898 95.3352C355.056 94.8919 354.361 94.2638 353.814 93.4511C353.267 92.6383 352.994 91.5521 352.994 90.1925C352.994 88.9216 353.253 87.8281 353.77 86.9118C354.287 85.9956 354.967 85.2419 355.809 84.6508C356.652 84.0597 357.62 83.6237 358.713 83.343C359.807 83.0622 360.915 82.9218 362.038 82.9218C363.457 82.9218 364.89 83.1287 366.339 83.5425C367.787 83.9562 369.013 84.6951 370.018 85.7591L365.94 89.7935Z"/>
<path d="M373.476 94.2269C373.476 92.5127 373.787 90.961 374.407 89.5718C375.028 88.1827 375.878 86.9931 376.956 86.003C378.035 85.0129 379.306 84.2518 380.769 83.7198C382.232 83.1878 383.791 82.9218 385.446 82.9218C387.102 82.9218 388.661 83.1878 390.124 83.7198C391.587 84.2518 392.858 85.0129 393.936 86.003C395.015 86.9931 395.865 88.1827 396.486 89.5718C397.106 90.961 397.417 92.5127 397.417 94.2269C397.417 95.9411 397.106 97.4928 396.486 98.8819C395.865 100.271 395.015 101.461 393.936 102.451C392.858 103.441 391.587 104.202 390.124 104.734C388.661 105.266 387.102 105.532 385.446 105.532C383.791 105.532 382.232 105.266 380.769 104.734C379.306 104.202 378.035 103.441 376.956 102.451C375.878 101.461 375.028 100.271 374.407 98.8819C373.787 97.4928 373.476 95.9411 373.476 94.2269ZM380.126 94.2269C380.126 95.8525 380.592 97.1677 381.523 98.1726C382.454 99.1775 383.762 99.6799 385.446 99.6799C387.131 99.6799 388.439 99.1775 389.37 98.1726C390.301 97.1677 390.766 95.8525 390.766 94.2269C390.766 92.6013 390.301 91.2861 389.37 90.2812C388.439 89.2763 387.131 88.7738 385.446 88.7738C383.762 88.7738 382.454 89.2763 381.523 90.2812C380.592 91.2861 380.126 92.6013 380.126 94.2269Z"/>
<path d="M401.318 83.4538L407.702 83.4538L407.702 86.3798L407.791 86.3798C407.998 85.966 408.293 85.5523 408.677 85.1385C409.062 84.7247 409.52 84.3552 410.052 84.0301C410.584 83.705 411.19 83.439 411.869 83.2321C412.549 83.0252 413.288 82.9218 414.086 82.9218C415.771 82.9218 417.13 83.1804 418.165 83.6976C419.199 84.2148 420.005 84.9316 420.581 85.8478C421.157 86.764 421.549 87.8428 421.756 89.0842C421.963 90.3255 422.066 91.6703 422.066 93.1185L422.066 105L415.416 105L415.416 94.4486C415.416 93.8279 415.394 93.185 415.35 92.52C415.305 91.855 415.172 91.2418 414.951 90.6802C414.729 90.1186 414.389 89.6605 413.931 89.3058C413.473 88.9512 412.815 88.7738 411.958 88.7738C411.101 88.7738 410.406 88.929 409.874 89.2393C409.342 89.5497 408.936 89.9635 408.655 90.4807C408.374 90.9979 408.19 91.5816 408.101 92.2319C408.012 92.8821 407.968 93.5619 407.968 94.2712L407.968 105L401.318 105L401.318 83.4538Z"/>
<path d="M89.4298 134.612L96.3459 134.612L96.3459 146.316L109.779 146.316L109.779 134.612L116.695 134.612L116.695 166L109.779 166L109.779 152.434L96.3459 152.434L96.3459 166L89.4298 166L89.4298 134.612Z"/>
<path d="M122.325 144.454L128.976 144.454L128.976 166L122.325 166L122.325 144.454ZM121.793 137.671C121.793 136.607 122.17 135.698 122.924 134.944C123.678 134.191 124.586 133.814 125.651 133.814C126.715 133.814 127.623 134.191 128.377 134.944C129.131 135.698 129.508 136.607 129.508 137.671C129.508 138.735 129.131 139.644 128.377 140.397C127.623 141.151 126.715 141.528 125.651 141.528C124.586 141.528 123.678 141.151 122.924 140.397C122.17 139.644 121.793 138.735 121.793 137.671Z"/>
<path d="M156.374 164.182C156.374 168.261 155.347 171.357 153.293 173.47C151.238 175.583 148.113 176.64 143.916 176.64C141.995 176.64 140.103 176.426 138.241 175.997C136.379 175.569 134.665 174.734 133.099 173.492L136.778 167.995C137.813 168.852 138.899 169.532 140.037 170.034C141.175 170.537 142.423 170.788 143.783 170.788C145.822 170.788 147.322 170.293 148.283 169.303C149.243 168.313 149.724 167.049 149.724 165.512L149.724 163.429L149.635 163.429C148.867 164.463 147.913 165.195 146.776 165.623C145.638 166.052 144.566 166.266 143.561 166.266C141.965 166.266 140.517 165.993 139.217 165.446C137.916 164.899 136.8 164.131 135.869 163.14C134.938 162.15 134.222 160.976 133.719 159.616C133.217 158.256 132.966 156.764 132.966 155.138C132.966 153.72 133.195 152.33 133.653 150.971C134.111 149.611 134.761 148.414 135.603 147.38C136.446 146.345 137.473 145.51 138.685 144.875C139.896 144.24 141.271 143.922 142.808 143.922C143.753 143.922 144.618 144.025 145.401 144.232C146.184 144.439 146.886 144.705 147.507 145.03C148.128 145.355 148.66 145.717 149.103 146.116C149.546 146.515 149.901 146.907 150.167 147.291L150.256 147.291L150.256 144.454L156.374 144.454L156.374 164.182ZM139.616 155.094C139.616 155.803 139.749 156.476 140.015 157.111C140.281 157.747 140.657 158.308 141.145 158.796C141.633 159.283 142.194 159.675 142.83 159.971C143.465 160.266 144.167 160.414 144.936 160.414C145.675 160.414 146.369 160.266 147.019 159.971C147.67 159.675 148.239 159.283 148.726 158.796C149.214 158.308 149.591 157.747 149.857 157.111C150.123 156.476 150.256 155.803 150.256 155.094C150.256 154.385 150.123 153.712 149.857 153.077C149.591 152.441 149.214 151.88 148.726 151.392C148.239 150.904 147.67 150.513 147.019 150.217C146.369 149.922 145.675 149.774 144.936 149.774C144.167 149.774 143.465 149.922 142.83 150.217C142.194 150.513 141.633 150.904 141.145 151.392C140.657 151.88 140.281 152.441 140.015 153.077C139.749 153.712 139.616 154.385 139.616 155.094Z"/>
<path d="M168.344 132.484L168.344 147.38L168.433 147.38C168.58 146.966 168.832 146.552 169.186 146.138C169.541 145.725 169.97 145.355 170.472 145.03C170.974 144.705 171.566 144.439 172.245 144.232C172.925 144.025 173.664 143.922 174.462 143.922C176.147 143.922 177.506 144.18 178.541 144.698C179.575 145.215 180.381 145.932 180.957 146.848C181.533 147.764 181.925 148.843 182.132 150.084C182.339 151.326 182.442 152.67 182.442 154.119L182.442 166L175.792 166L175.792 155.449C175.792 154.828 175.77 154.185 175.726 153.52C175.681 152.855 175.548 152.242 175.326 151.68C175.105 151.119 174.765 150.661 174.307 150.306C173.849 149.951 173.191 149.774 172.334 149.774C171.477 149.774 170.782 149.929 170.25 150.239C169.718 150.55 169.312 150.963 169.031 151.481C168.75 151.998 168.566 152.582 168.477 153.232C168.388 153.882 168.344 154.562 168.344 155.271L168.344 166L161.694 166L161.694 132.484L168.344 132.484Z"/>
<path d="M216.623 142.281C216.062 141.572 215.301 141.047 214.34 140.708C213.38 140.368 212.471 140.198 211.614 140.198C211.111 140.198 210.594 140.257 210.062 140.375C209.53 140.493 209.028 140.678 208.555 140.929C208.082 141.18 207.698 141.513 207.402 141.927C207.106 142.341 206.959 142.843 206.959 143.434C206.959 144.38 207.313 145.104 208.023 145.606C208.732 146.109 209.626 146.537 210.705 146.892C211.784 147.247 212.944 147.601 214.185 147.956C215.426 148.311 216.586 148.813 217.665 149.464C218.744 150.114 219.638 150.986 220.347 152.079C221.057 153.173 221.411 154.636 221.411 156.468C221.411 158.212 221.086 159.734 220.436 161.035C219.786 162.335 218.907 163.414 217.798 164.271C216.69 165.128 215.404 165.764 213.941 166.177C212.478 166.591 210.934 166.798 209.308 166.798C207.269 166.798 205.377 166.488 203.634 165.867C201.89 165.246 200.264 164.241 198.757 162.852L203.678 157.444C204.387 158.389 205.281 159.121 206.36 159.638C207.439 160.155 208.555 160.414 209.707 160.414C210.269 160.414 210.838 160.347 211.414 160.214C211.991 160.081 212.508 159.882 212.966 159.616C213.424 159.35 213.793 159.01 214.074 158.596C214.355 158.182 214.495 157.695 214.495 157.133C214.495 156.187 214.133 155.441 213.409 154.894C212.685 154.348 211.776 153.882 210.683 153.498C209.589 153.114 208.407 152.729 207.136 152.345C205.865 151.961 204.683 151.444 203.589 150.794C202.496 150.143 201.587 149.286 200.863 148.222C200.139 147.158 199.777 145.754 199.777 144.01C199.777 142.326 200.109 140.848 200.774 139.577C201.439 138.306 202.326 137.242 203.434 136.385C204.542 135.528 205.821 134.885 207.269 134.457C208.717 134.028 210.21 133.814 211.747 133.814C213.52 133.814 215.234 134.065 216.889 134.567C218.545 135.07 220.037 135.912 221.367 137.094L216.623 142.281Z"/>
<path d="M240.298 151.414C239.973 150.941 239.514 150.55 238.923 150.239C238.332 149.929 237.697 149.774 237.017 149.774C235.332 149.774 234.024 150.276 233.093 151.281C232.162 152.286 231.697 153.601 231.697 155.227C231.697 156.852 232.162 158.168 233.093 159.173C234.024 160.177 235.332 160.68 237.017 160.68C237.756 160.68 238.391 160.517 238.923 160.192C239.455 159.867 239.913 159.483 240.298 159.04L244.687 163.65C243.652 164.714 242.433 165.461 241.029 165.889C239.625 166.318 238.288 166.532 237.017 166.532C235.362 166.532 233.803 166.266 232.34 165.734C230.877 165.202 229.606 164.441 228.527 163.451C227.448 162.461 226.599 161.271 225.978 159.882C225.357 158.493 225.047 156.941 225.047 155.227C225.047 153.513 225.357 151.961 225.978 150.572C226.599 149.183 227.448 147.993 228.527 147.003C229.606 146.013 230.877 145.252 232.34 144.72C233.803 144.188 235.362 143.922 237.017 143.922C238.288 143.922 239.625 144.136 241.029 144.565C242.433 144.993 243.652 145.739 244.687 146.803L240.298 151.414Z"/>
<path d="M253.731 132.484L253.731 147.38L253.819 147.38C253.967 146.966 254.218 146.552 254.573 146.138C254.928 145.725 255.356 145.355 255.859 145.03C256.361 144.705 256.952 144.439 257.632 144.232C258.312 144.025 259.051 143.922 259.849 143.922C261.534 143.922 262.893 144.18 263.928 144.698C264.962 145.215 265.767 145.932 266.344 146.848C266.92 147.764 267.312 148.843 267.519 150.084C267.725 151.326 267.829 152.67 267.829 154.119L267.829 166L261.179 166L261.179 155.449C261.179 154.828 261.157 154.185 261.112 153.52C261.068 152.855 260.935 152.242 260.713 151.68C260.492 151.119 260.152 150.661 259.694 150.306C259.236 149.951 258.578 149.774 257.721 149.774C256.864 149.774 256.169 149.929 255.637 150.239C255.105 150.55 254.699 150.963 254.418 151.481C254.137 151.998 253.952 152.582 253.864 153.232C253.775 153.882 253.731 154.562 253.731 155.271L253.731 166L247.081 166L247.081 132.484L253.731 132.484Z"/>
<path d="M271.73 155.227C271.73 153.513 272.041 151.961 272.661 150.572C273.282 149.183 274.132 147.993 275.21 147.003C276.289 146.013 277.56 145.252 279.023 144.72C280.486 144.188 282.045 143.922 283.7 143.922C285.356 143.922 286.915 144.188 288.378 144.72C289.841 145.252 291.112 146.013 292.19 147.003C293.269 147.993 294.119 149.183 294.74 150.572C295.36 151.961 295.671 153.513 295.671 155.227C295.671 156.941 295.36 158.493 294.74 159.882C294.119 161.271 293.269 162.461 292.19 163.451C291.112 164.441 289.841 165.202 288.378 165.734C286.915 166.266 285.356 166.532 283.7 166.532C282.045 166.532 280.486 166.266 279.023 165.734C277.56 165.202 276.289 164.441 275.21 163.451C274.132 162.461 273.282 161.271 272.661 159.882C272.041 158.493 271.73 156.941 271.73 155.227ZM278.38 155.227C278.38 156.852 278.846 158.168 279.777 159.173C280.708 160.177 282.016 160.68 283.7 160.68C285.385 160.68 286.693 160.177 287.624 159.173C288.555 158.168 289.02 156.852 289.02 155.227C289.02 153.601 288.555 152.286 287.624 151.281C286.693 150.276 285.385 149.774 283.7 149.774C282.016 149.774 280.708 150.276 279.777 151.281C278.846 152.286 278.38 153.601 278.38 155.227Z"/>
<path d="M298.774 155.227C298.774 153.513 299.084 151.961 299.705 150.572C300.326 149.183 301.175 147.993 302.254 147.003C303.333 146.013 304.604 145.252 306.067 144.72C307.53 144.188 309.089 143.922 310.744 143.922C312.399 143.922 313.958 144.188 315.421 144.72C316.884 145.252 318.155 146.013 319.234 147.003C320.313 147.993 321.162 149.183 321.783 150.572C322.404 151.961 322.714 153.513 322.714 155.227C322.714 156.941 322.404 158.493 321.783 159.882C321.162 161.271 320.313 162.461 319.234 163.451C318.155 164.441 316.884 165.202 315.421 165.734C313.958 166.266 312.399 166.532 310.744 166.532C309.089 166.532 307.53 166.266 306.067 165.734C304.604 165.202 303.333 164.441 302.254 163.451C301.175 162.461 300.326 161.271 299.705 159.882C299.084 158.493 298.774 156.941 298.774 155.227ZM305.424 155.227C305.424 156.852 305.889 158.168 306.82 159.173C307.751 160.177 309.059 160.68 310.744 160.68C312.429 160.68 313.737 160.177 314.668 159.173C315.599 158.168 316.064 156.852 316.064 155.227C316.064 153.601 315.599 152.286 314.668 151.281C313.737 150.276 312.429 149.774 310.744 149.774C309.059 149.774 307.751 150.276 306.82 151.281C305.889 152.286 305.424 153.601 305.424 155.227Z"/>
<path d="M326.704 132.484L333.354 132.484L333.354 166L326.704 166L326.704 132.484Z"/>
<path d="M338.275 162.187C338.275 161.626 338.379 161.094 338.586 160.591C338.793 160.089 339.081 159.653 339.45 159.283C339.82 158.914 340.256 158.626 340.758 158.419C341.26 158.212 341.792 158.109 342.354 158.109C342.916 158.109 343.448 158.212 343.95 158.419C344.452 158.626 344.888 158.914 345.258 159.283C345.627 159.653 345.915 160.089 346.122 160.591C346.329 161.094 346.433 161.626 346.433 162.187C346.433 162.749 346.329 163.281 346.122 163.783C345.915 164.286 345.627 164.722 345.258 165.091C344.888 165.461 344.452 165.749 343.95 165.956C343.448 166.163 342.916 166.266 342.354 166.266C341.792 166.266 341.26 166.163 340.758 165.956C340.256 165.749 339.82 165.461 339.45 165.091C339.081 164.722 338.793 164.286 338.586 163.783C338.379 163.281 338.275 162.749 338.275 162.187Z"/>
</g>
</g>
</svg>
